P2
80 60
30764
30031 30021 30014 30010 30006 30000 29981 29994 29979 29977 29959 29965 29963 29975 29959 29963 29959 29953 29948 29946 29948 29924 29938 29911 29930 29919 29928 29917 29903 29898 29913 29892 29911 29898 29884 29882 29890 29867 29877 29859 29867 29875 29869 29880 29869 29869 29865 29871 29852 29863 29865 29867 29854 29852 29846 29859 29861 29854 29863 29842 29857 29850 29867 29844 29850 29842 29846 29834 29852 29836 29829 29840 29842 29829 29844 29817 29840 29840 29827 29831 
29838 29825 29831 29827 29838 29829 29831 29863 29957 30186 30468 30560 30588 30607 30634 30636 30642 30646 30648 30659 30667 30659 30654 30638 30511 30149 29932 29888 29854 29867 29846 29859 29865 29875 29871 29884 29865 29871 29892 29898 29948 30070 30283 30493 30595 30617 30646 30650 30648 30646 30657 30654 30669 30669 30646 30642 30644 30648 30652 30663 30669 30669 30675 30669 30657 30636 30611 30576 30525 30389 30212 30052 29992 29961 29942 29928 29919 29911 29915 29938 
30014 30031 30014 30010 30008 29992 29996 29992 29965 29971 29975 29971 29975 29948 29969 29965 29963 29944 29961 29946 29959 29926 29934 29917 29940 29930 29924 29905 29905 29896 29907 29905 29886 29894 29873 29877 29896 29901 29880 29861 29873 29882 29850 29867 29854 29869 29848 29857 29863 29857 29852 29857 29867 29850 29852 29863 29850 29865 29840 29865 29840 29848 29850 29850 29854 29844 29844 29842 29840 29838 29829 29865 29863 29834 29827 29819 29825 29836 29836 29834 
29838 29831 29829 29836 29827 29825 29865 29921 30133 30426 30537 30586 30613 30619 30634 30636 30640 30638 30652 30659 30661 30671 30652 30580 30321 29996 29901 29867 29850 29848 29852 29859 29848 29882 29882 29892 29886 29896 29928 30006 30212 30456 30576 30621 30648 30671 30663 30667 30656 30661 30657 30661 30669 30679 30671 30669 30657 30650 30654 30654 30665 30665 30657 30646 30644 30601 30539 30405 30231 30082 30014 29961 29957 29928 29928 29919 29924 29919 29921 29948 
30021 30041 30023 30004 29998 29992 29998 29996 29990 29957 29969 29979 29975 29957 29969 29965 29961 29963 29965 29951 29938 29926 29921 29926 29911 29940 29921 29907 29907 29913 29911 29898 29888 29901 29882 29884 29884 29898 29869 29871 29873 29861 29861 29871 29863 29869 29869 29861 29850 29852 29854 29861 29854 29861 29863 29859 29865 29857 29869 29865 29854 29850 29850 29852 29846 29844 29850 29829 29850 29846 29852 29867 29861 29848 29823 29825 29831 29834 29834 29838 
29846 29831 29836 29829 29838 29873 29928 30084 30391 30527 30592 30615 30628 30636 30652 30648 30642 30657 30646 30661 30665 30671 30626 30495 30113 29942 29877 29852 29848 29850 29863 29859 29875 29875 29882 29896 29928 29988 30133 30389 30533 30592 30625 30661 30673 30696 30669 30675 30671 30673 30683 30683 30687 30679 30677 30673 30661 30659 30669 30663 30659 30669 30652 30630 30584 30415 30202 30060 30006 29969 29959 29932 29930 29928 29907 29934 29932 29915 29932 29963 
30050 30029 30014 30004 30002 29996 29973 30004 29992 29977 29977 29973 29961 29973 29971 29965 29957 29959 29961 29959 29959 29934 29934 29930 29926 29930 29917 29915 29898 29896 29913 29901 29886 29896 29880 29888 29880 29880 29880 29857 29882 29865 29854 29865 29875 29854 29865 29863 29857 29863 29863 29857 29857 29857 29863 29865 29857 29867 29865 29873 29842 29867 29867 29861 29863 29844 29844 29823 29854 29869 29854 29861 29863 29850 29840 29840 29829 29827 29829 29823 
29852 29838 29846 29854 29896 29965 30141 30391 30539 30599 30623 30623 30638 30650 30657 30644 30634 30642 30661 30663 30667 30650 30570 30319 29975 29901 29890 29865 29861 29863 29863 29867 29875 29888 29921 29951 30078 30317 30489 30566 30613 30634 30650 30640 30677 30687 30685 30683 30690 30692 30694 30683 30690 30688 30675 30681 30683 30673 30667 30661 30656 30644 30607 30485 30279 30064 29979 29944 29973 29951 29938 29953 29930 29938 29932 29932 29928 29942 29951 29986 
30043 30033 30027 30008 30017 30004 30000 30000 30000 29988 29967 29959 29979 29967 29984 29948 29965 29957 29944 29959 29955 29932 29915 29919 29915 29919 29917 29898 29913 29901 29909 29909 29890 29894 29888 29890 29880 29877 29867 29852 29869 29859 29861 29867 29867 29861 29857 29865 29857 29846 29859 29861 29854 29846 29857 29871 29880 29865 29865 29873 29859 29869 29863 29865 29848 29850 29852 29825 29863 29861 29859 29854 29867 29848 29834 29836 29827 29842 29831 29840 
29834 29859 29873 29898 30012 30239 30450 30556 30599 30615 30625 30634 30634 30652 30652 30640 30642 30646 30650 30667 30661 30642 30521 30141 29940 29890 29886 29873 29859 29857 29871 29873 29888 29936 30014 30202 30440 30568 30619 30634 30642 30642 30642 30679 30681 30698 30706 30712 30710 30710 30700 30692 30708 30692 30690 30683 30671 30656 30656 30646 30603 30482 30283 30105 30004 29951 29944 29932 29938 29928 29940 29928 29944 29940 29944 29951 29961 29955 29998 30014 
30052 30045 30043 30029 30014 30027 30014 30012 30017 29990 29979 29979 29973 29977 29990 29953 29975 29965 29969 29975 29975 29936 29934 29924 29932 29924 29932 29921 29911 29917 29915 29901 29905 29892 29892 29894 29880 29882 29869 29865 29877 29880 29871 29880 29875 29880 29863 29857 29873 29859 29867 29852 29865 29854 29861 29859 29863 29877 29865 29869 29865 29863 29865 29857 29854 29838 29844 29834 29854 29859 29865 29867 29865 29861 29844 29852 29846 29842 29850 29854 
29867 29888 29926 30037 30283 30489 30576 30603 30617 30619 30617 30615 30628 30628 30634 30628 30642 30654 30663 30681 30675 30642 30436 30041 29911 29892 29877 29873 29861 29873 29890 29911 29963 30080 30341 30539 30613 30640 30638 30652 30656 30661 30667 30675 30698 30706 30729 30725 30718 30702 30719 30700 30706 30700 30685 30683 30681 30652 30617 30539 30333 30119 30012 29969 29953 29938 29951 29926 29932 29946 29946 29948 29932 29953 29959 30000 30000 30014 30090 30194 
30062 30054 30043 30039 30025 30017 30004 30014 30008 29996 29988 29984 29979 29975 29979 29959 29979 29969 29965 29961 29969 29959 29932 29934 29930 29924 29924 29898 29926 29909 29915 29907 29913 29898 29880 29882 29873 29880 29869 29877 29877 29861 29865 29869 29875 29859 29857 29861 29854 29850 29869 29863 29871 29854 29869 29854 29871 29871 29877 29886 29852 29859 29867 29865 29867 29852 29859 29842 29859 29863 29861 29859 29873 29854 29857 29840 29838 29857 29850 29857 
29907 29975 30147 30369 30497 30560 30597 30619 30621 30613 30605 30605 30611 30603 30626 30626 30634 30646 30661 30673 30679 30630 30401 30006 29907 29890 29894 29890 29875 29888 29907 30004 30200 30460 30582 30626 30628 30636 30638 30656 30656 30665 30685 30688 30714 30723 30719 30723 30721 30712 30712 30692 30708 30700 30681 30685 30646 30592 30444 30182 30004 29948 29955 29953 29936 29924 29921 29926 29932 29940 29961 29963 29965 29969 30006 30052 30074 30196 30343 30462 
30050 30062 30045 30050 30037 30023 30027 30045 30029 29992 29988 29975 29986 29979 29975 29969 29977 29971 29969 29961 29963 29938 29924 29921 29936 29924 29926 29911 29901 29915 29907 29901 29905 29896 29896 29880 29884 29873 29880 29873 29863 29873 29854 29896 29867 29861 29852 29859 29867 29871 29854 29859 29854 29869 29857 29865 29873 29877 29863 29869 29857 29859 29861 29859 29846 29852 29859 29846 29846 29863 29852 29865 29861 29865 29844 29842 29854 29852 29875 29924 
30054 30243 30421 30519 30572 30611 30628 30632 30617 30623 30621 30613 30607 30603 30613 30630 30634 30640 30648 30665 30681 30644 30480 30062 29924 29905 29917 29903 29936 29984 30105 30353 30525 30619 30646 30652 30640 30623 30642 30656 30659 30667 30688 30698 30706 30708 30723 30718 30719 30712 30702 30716 30700 30687 30671 30628 30529 30295 30050 29971 29936 29930 29940 29944 29957 29926 29928 29924 29928 29948 29979 29994 30002 30064 30125 30285 30405 30509 30552 30613 
30054 30056 30047 30060 30039 30025 30021 30043 30029 30002 29994 29998 29986 29998 29998 29963 29988 29948 29981 29969 29965 29942 29940 29926 29913 29930 29907 29903 29907 29911 29901 29909 29907 29898 29884 29901 29890 29890 29871 29873 29871 29886 29869 29865 29865 29859 29859 29854 29871 29869 29867 29873 29877 29865 29873 29869 29859 29865 29854 29875 29863 29863 29867 29863 29848 29861 29852 29838 29852 29846 29857 29867 29863 29869 29844 29852 29854 29896 29948 30129 
30375 30491 30554 30592 30615 30628 30628 30617 30623 30625 30617 30626 30619 30607 30607 30632 30636 30640 30638 30661 30661 30650 30548 30281 30060 29981 29981 29986 30074 30299 30505 30594 30636 30640 30659 30652 30642 30644 30642 30661 30657 30683 30679 30708 30714 30704 30719 30747 30743 30727 30719 30716 30708 30675 30605 30432 30174 30012 29942 29951 29924 29926 29948 29940 29946 29961 29936 29951 29961 29988 30035 30101 30204 30355 30487 30576 30597 30619 30594 30613 
30062 30066 30058 30052 30054 30029 30037 30058 30017 30010 30006 30008 30006 29981 29992 29967 29971 29957 29977 29965 29971 29953 29951 29936 29921 29930 29915 29894 29911 29917 29934 29917 29913 29901 29894 29880 29892 29882 29877 29875 29894 29865 29875 29871 29852 29854 29869 29865 29863 29863 29869 29863 29867 29875 29863 29863 29869 29865 29854 29857 29859 29867 29863 29861 29861 29861 29857 29842 29867 29840 29844 29861 29863 29880 29880 29886 29921 30025 30233 30442 
30543 30586 30611 30628 30630 30640 30621 30636 30623 30634 30632 30621 30625 30617 30630 30621 30632 30632 30636 30663 30659 30665 30621 30558 30428 30291 30210 30287 30470 30588 30626 30661 30671 30671 30675 30659 30654 30650 30638 30650 30659 30663 30679 30698 30700 30721 30723 30741 30745 30754 30721 30714 30673 30545 30289 30066 29979 29961 29936 29928 29909 29938 29942 29955 29955 29977 30004 30025 30099 30202 30363 30472 30558 30625 30646 30675 30636 30626 30603 30603 
30074 30056 30070 30056 30060 30058 30052 30058 30064 30031 30019 30012 30008 29988 30006 29971 29977 29969 29961 29967 29977 29969 29940 29934 29934 29934 29930 29917 29919 29921 29936 29917 29913 29907 29915 29898 29892 29890 29882 29880 29873 29871 29882 29886 29871 29861 29861 29863 29869 29867 29869 29871 29880 29871 29867 29865 29871 29869 29873 29865 29865 29865 29861 29873 29869 29859 29846 29846 29865 29859 29857 29857 29867 29890 29903 29986 30135 30327 30499 30554 
30609 30617 30626 30638 30636 30650 30638 30632 30634 30638 30636 30625 30628 30617 30623 30626 30634 30638 30634 30648 30661 30659 30650 30626 30582 30576 30562 30584 30613 30654 30665 30683 30675 30675 30675 30688 30669 30661 30652 30669 30663 30661 30673 30685 30706 30704 30723 30741 30752 30764 30712 30615 30393 30131 30006 29957 29948 29944 29928 29921 29930 29942 29973 30002 30035 30086 30196 30319 30470 30601 30644 30712 30727 30712 30690 30675 30638 30621 30597 30597 
30086 30062 30068 30062 30086 30058 30058 30078 30052 30037 30027 30017 30014 30004 30006 29990 29996 29988 29992 29986 29977 29961 29957 29930 29928 29938 29934 29934 29911 29917 29930 29921 29917 29909 29903 29894 29888 29880 29886 29877 29898 29884 29901 29873 29875 29873 29867 29865 29877 29867 29873 29871 29871 29863 29869 29875 29867 29877 29875 29857 29875 29852 29865 29861 29857 29857 29854 29846 29863 29871 29865 29867 29890 29940 30060 30267 30417 30511 30566 30613 
30623 30638 30640 30654 30650 30652 30636 30632 30630 30634 30628 30626 30634 30632 30646 30634 30634 30632 30646 30648 30652 30650 30656 30644 30615 30630 30638 30640 30648 30669 30679 30663 30681 30675 30681 30677 30675 30681 30657 30669 30657 30671 30673 30685 30700 30714 30719 30739 30727 30661 30456 30198 30025 29990 29967 29955 29955 29940 29924 29946 29971 30004 30068 30214 30363 30470 30582 30636 30694 30694 30716 30737 30725 30718 30702 30688 30648 30615 30599 30599 
30076 30090 30062 30076 30072 30060 30047 30072 30058 30056 30037 30023 30033 30017 30017 29986 30000 29992 29986 29981 29988 29961 29942 29942 29926 29930 29934 29938 29924 29926 29932 29915 29909 29909 29905 29907 29894 29896 29882 29877 29861 29880 29869 29873 29875 29880 29869 29863 29880 29877 29863 29863 29861 29875 29865 29875 29873 29871 29865 29882 29880 29869 29863 29859 29861 29877 29852 29857 29865 29877 29873 29892 29981 30143 30343 30472 30541 30574 30611 30640 
30667 30654 30650 30659 30661 30654 30648 30636 30632 30636 30623 30621 30626 30650 30644 30648 30642 30628 30646 30634 30628 30636 30636 30642 30625 30648 30644 30646 30648 30669 30669 30677 30679 30685 30694 30692 30690 30677 30661 30667 30665 30677 30669 30675 30704 30685 30706 30671 30513 30253 30062 30006 29977 29959 29961 29979 29969 29979 30000 30056 30147 30305 30485 30609 30626 30679 30679 30702 30700 30712 30729 30710 30735 30723 30702 30688 30644 30628 30595 30597 
30078 30066 30070 30092 30072 30058 30060 30074 30078 30068 30056 30035 30056 30045 30027 30025 30010 30006 29988 29992 29990 29969 29967 29948 29932 29959 29938 29917 29921 29930 29924 29909 29919 29903 29894 29884 29894 29890 29880 29865 29869 29873 29865 29873 29854 29877 29867 29873 29867 29867 29871 29871 29859 29861 29863 29863 29863 29861 29865 29867 29867 29867 29861 29871 29871 29871 29869 29869 29892 29905 29919 30056 30239 30403 30507 30562 30597 30623 30646 30667 
30675 30679 30677 30667 30644 30636 30638 30632 30638 30615 30621 30619 30623 30640 30640 30652 30648 30625 30630 30630 30638 30630 30625 30632 30615 30638 30646 30638 30644 30663 30657 30667 30687 30685 30690 30683 30683 30677 30669 30675 30663 30671 30656 30663 30667 30650 30550 30305 30107 30008 29977 29981 29977 29957 29984 30000 30033 30115 30261 30424 30588 30638 30663 30677 30679 30688 30708 30683 30696 30700 30708 30710 30714 30714 30712 30692 30652 30626 30628 30607 
30094 30068 30084 30101 30080 30064 30088 30103 30084 30076 30064 30056 30068 30074 30070 30019 30021 30025 30000 29994 30012 29973 29981 29955 29957 29953 29953 29928 29936 29936 29942 29926 29921 29928 29905 29903 29892 29894 29869 29854 29867 29884 29867 29884 29867 29869 29861 29877 29884 29877 29875 29859 29859 29871 29884 29877 29867 29880 29871 29890 29871 29867 29867 29865 29859 29867 29875 29867 29915 29977 30125 30351 30470 30539 30582 30611 30626 30644 30654 30673 
30687 30700 30683 30679 30673 30642 30636 30644 30646 30625 30617 30619 30621 30640 30630 30626 30636 30630 30636 30617 30613 30605 30621 30625 30609 30628 30628 30628 30632 30667 30648 30665 30681 30704 30708 30694 30692 30687 30675 30661 30654 30656 30652 30644 30568 30385 30119 30039 29990 29979 29979 29981 30017 30062 30151 30295 30438 30578 30665 30706 30708 30681 30687 30683 30665 30671 30683 30690 30677 30679 30696 30718 30710 30716 30710 30687 30659 30644 30628 30617 
30096 30090 30084 30090 30086 30080 30107 30103 30086 30090 30068 30076 30072 30050 30072 30031 30031 30023 30017 30004 30017 29992 29975 29957 29959 29957 29942 29932 29926 29932 29938 29924 29924 29919 29915 29905 29896 29890 29888 29869 29877 29877 29857 29880 29859 29871 29869 29865 29875 29857 29871 29859 29844 29863 29867 29877 29882 29877 29877 29865 29859 29857 29873 29863 29873 29871 29896 29919 30025 30218 30401 30505 30552 30582 30613 30634 30634 30657 30661 30675 
30683 30688 30696 30687 30652 30652 30638 30642 30630 30634 30621 30625 30626 30623 30609 30607 30609 30605 30621 30597 30607 30595 30605 30605 30597 30615 30621 30603 30611 30652 30648 30665 30679 30692 30700 30706 30698 30685 30673 30659 30656 30632 30599 30442 30200 30019 29994 29977 29996 30025 30039 30139 30277 30448 30568 30659 30706 30723 30716 30704 30687 30665 30683 30683 30657 30683 30688 30671 30685 30679 30673 30704 30700 30712 30694 30704 30685 30652 30638 30634 
30082 30090 30080 30109 30090 30076 30080 30107 30090 30084 30078 30086 30066 30064 30064 30035 30025 30029 30031 30006 30008 29988 29977 29963 29955 29946 29932 29944 29934 29953 29944 29919 29913 29913 29909 29907 29877 29880 29882 29875 29877 29865 29861 29854 29867 29863 29873 29861 29873 29869 29861 29865 29865 29877 29863 29875 29859 29873 29880 29880 29861 29867 29869 29867 29875 29896 29967 30072 30287 30434 30511 30562 30586 30609 30632 30642 30648 30652 30656 30667 
30663 30681 30683 30669 30659 30646 30646 30634 30636 30621 30625 30617 30607 30607 30601 30597 30603 30592 30586 30590 30599 30588 30590 30597 30595 30607 30619 30605 30615 30632 30634 30650 30663 30685 30696 30687 30679 30685 30669 30646 30613 30515 30287 30068 30023 29990 30025 30017 30131 30231 30381 30556 30615 30654 30677 30696 30696 30716 30702 30704 30675 30677 30683 30669 30663 30675 30681 30667 30663 30665 30673 30687 30688 30694 30681 30698 30677 30659 30625 30628 
30092 30090 30084 30109 30086 30092 30082 30099 30086 30082 30088 30080 30088 30066 30080 30031 30035 30041 30033 30014 30021 29998 29992 29963 29951 29951 29940 29928 29936 29942 29953 29946 29913 29917 29907 29903 29901 29884 29898 29854 29873 29863 29859 29873 29865 29861 29865 29871 29865 29863 29861 29873 29850 29863 29869 29857 29875 29869 29873 29863 29869 29877 29880 29903 29909 30002 30198 30345 30438 30517 30547 30584 30613 30636 30654 30665 30654 30656 30659 30679 
30679 30671 30667 30661 30654 30632 30644 30638 30628 30621 30607 30623 30603 30607 30603 30592 30595 30590 30590 30580 30588 30570 30594 30592 30603 30613 30615 30605 30592 30630 30630 30646 30663 30673 30698 30700 30696 30685 30632 30523 30323 30113 30021 30021 30031 30072 30208 30363 30521 30597 30642 30650 30661 30665 30679 30673 30690 30685 30706 30685 30681 30683 30687 30675 30673 30669 30667 30667 30667 30679 30671 30677 30683 30688 30685 30698 30677 30638 30609 30599 
30088 30096 30084 30105 30111 30103 30088 30092 30088 30086 30082 30090 30060 30068 30099 30072 30050 30052 30054 30025 30035 30014 29996 29977 29967 29967 29955 29955 29942 29959 29936 29955 29946 29928 29934 29911 29903 29901 29882 29875 29882 29867 29850 29857 29877 29850 29857 29846 29865 29854 29867 29857 29859 29857 29871 29861 29875 29875 29865 29867 29865 29880 29915 29971 30099 30285 30413 30468 30511 30558 30594 30619 30609 30630 30648 30654 30667 30648 30665 30659 
30669 30659 30669 30657 30657 30642 30650 30650 30625 30623 30615 30611 30605 30603 30594 30599 30582 30580 30584 30574 30576 30574 30580 30584 30615 30609 30607 30603 30619 30630 30630 30636 30656 30673 30677 30704 30692 30673 30460 30180 30088 30047 30064 30153 30293 30448 30582 30630 30648 30646 30644 30652 30657 30644 30659 30683 30681 30688 30685 30690 30698 30696 30698 30681 30696 30679 30663 30685 30671 30671 30661 30663 30679 30669 30683 30690 30648 30619 30568 30519 
30090 30090 30109 30105 30103 30088 30092 30107 30111 30103 30080 30080 30068 30096 30103 30078 30058 30054 30052 30031 30037 30031 30021 30017 29994 29984 29963 29953 29961 29953 29948 29932 29936 29936 29930 29913 29901 29915 29896 29865 29861 29863 29852 29882 29875 29867 29850 29840 29859 29861 29857 29844 29846 29842 29848 29838 29861 29867 29877 29886 29882 29905 29988 30188 30351 30430 30472 30501 30550 30582 30607 30630 30621 30621 30642 30663 30654 30667 30657 30659 
30673 30669 30656 30648 30652 30646 30652 30646 30640 30623 30621 30607 30613 30599 30590 30586 30564 30568 30566 30564 30562 30552 30570 30586 30576 30597 30611 30609 30609 30621 30626 30625 30640 30657 30673 30677 30688 30640 30313 30147 30208 30303 30432 30537 30609 30646 30648 30628 30642 30644 30638 30644 30652 30652 30652 30650 30669 30669 30681 30694 30692 30685 30694 30690 30683 30681 30671 30688 30667 30661 30654 30654 30648 30659 30638 30617 30548 30493 30397 30291 
30103 30101 30088 30115 30099 30086 30105 30119 30117 30107 30086 30080 30084 30090 30088 30062 30062 30056 30064 30058 30050 30052 30052 30041 30035 30012 29981 29957 29971 29961 29961 29948 29936 29930 29926 29913 29905 29901 29882 29852 29850 29861 29842 29869 29873 29840 29844 29854 29863 29852 29850 29859 29840 29850 29850 29861 29859 29859 29877 29901 29921 30014 30247 30407 30450 30489 30521 30525 30580 30595 30628 30640 30626 30619 30638 30650 30650 30646 30648 30652 
30652 30640 30650 30665 30665 30667 30663 30652 30652 30642 30628 30617 30607 30603 30594 30574 30572 30564 30552 30574 30550 30562 30580 30584 30586 30592 30597 30595 30601 30611 30609 30609 30625 30634 30661 30665 30661 30650 30525 30552 30609 30638 30625 30634 30630 30628 30642 30621 30636 30644 30628 30642 30652 30650 30650 30646 30661 30665 30683 30688 30683 30687 30704 30692 30681 30688 30681 30669 30671 30652 30657 30626 30632 30625 30568 30485 30347 30233 30101 30062 
30117 30105 30092 30109 30096 30084 30101 30101 30099 30090 30099 30088 30117 30103 30105 30074 30082 30064 30068 30056 30068 30062 30060 30070 30072 30041 30012 29981 29984 29971 29969 29959 29951 29946 29928 29917 29924 29919 29888 29869 29871 29869 29869 29875 29875 29869 29867 29867 29871 29859 29873 29867 29857 29869 29863 29869 29892 29892 29892 29938 30066 30281 30438 30472 30505 30533 30560 30576 30595 30636 30646 30642 30623 30642 30642 30657 30663 30654 30650 30640 
30644 30640 30650 30650 30667 30677 30671 30648 30652 30652 30638 30626 30623 30617 30588 30582 30570 30566 30568 30572 30564 30566 30584 30590 30576 30568 30584 30586 30594 30584 30597 30607 30603 30625 30642 30636 30646 30646 30630 30644 30652 30661 30652 30640 30625 30621 30630 30640 30626 30634 30621 30628 30638 30638 30654 30642 30654 30657 30667 30673 30683 30704 30692 30687 30681 30683 30671 30673 30659 30654 30634 30613 30584 30505 30379 30233 30096 30039 30010 30000 
30113 30117 30101 30101 30111 30082 30099 30111 30107 30113 30088 30099 30099 30105 30125 30070 30082 30088 30078 30084 30070 30074 30062 30066 30072 30050 30035 30025 30017 30002 29986 29963 29957 29946 29944 29915 29915 29917 29882 29875 29882 29898 29894 29888 29884 29884 29880 29871 29873 29888 29873 29877 29884 29875 29871 29892 29898 29917 29944 30094 30339 30460 30497 30505 30541 30564 30595 30601 30625 30644 30667 30656 30661 30657 30654 30673 30659 30663 30663 30648 
30640 30657 30673 30675 30673 30690 30663 30656 30652 30659 30642 30636 30626 30599 30601 30588 30588 30580 30578 30568 30572 30590 30601 30595 30582 30582 30570 30572 30580 30588 30580 30590 30605 30595 30611 30617 30626 30630 30638 30642 30646 30652 30632 30623 30626 30628 30644 30628 30634 30626 30628 30621 30625 30619 30638 30644 30644 30669 30669 30673 30690 30669 30690 30683 30675 30679 30690 30665 30659 30630 30609 30556 30444 30251 30113 30080 30006 29994 29988 29963 
30088 30115 30088 30101 30115 30101 30125 30115 30099 30117 30096 30090 30086 30107 30121 30070 30084 30099 30086 30078 30062 30066 30052 30068 30072 30072 30058 30062 30052 30025 29998 29977 29971 29965 29944 29911 29911 29917 29919 29880 29894 29896 29886 29888 29886 29875 29892 29888 29873 29890 29888 29884 29880 29880 29886 29909 29932 29977 30115 30351 30456 30493 30513 30558 30556 30588 30613 30594 30623 30659 30669 30677 30667 30661 30663 30661 30661 30654 30650 30654 
30644 30636 30657 30669 30671 30671 30669 30667 30656 30638 30630 30636 30626 30611 30601 30588 30590 30590 30582 30586 30578 30601 30599 30590 30566 30582 30588 30574 30582 30594 30576 30595 30599 30601 30588 30597 30595 30611 30615 30625 30623 30626 30619 30617 30630 30625 30619 30619 30623 30609 30611 30611 30621 30621 30626 30632 30650 30646 30650 30656 30683 30677 30687 30685 30671 30687 30671 30663 30621 30566 30480 30313 30172 30031 29992 29990 29965 29969 29973 29975 
30103 30105 30115 30105 30117 30094 30109 30113 30105 30105 30101 30101 30107 30113 30117 30092 30096 30103 30090 30086 30092 30074 30062 30096 30076 30080 30068 30088 30086 30056 30035 30008 29994 29955 29924 29921 29915 29942 29928 29894 29886 29896 29869 29890 29901 29875 29890 29886 29886 29903 29884 29903 29890 29894 29905 29913 29981 30157 30381 30472 30509 30539 30554 30582 30574 30603 30613 30607 30625 30665 30669 30688 30688 30675 30683 30675 30667 30657 30657 30646 
30663 30665 30661 30675 30683 30673 30673 30681 30657 30642 30636 30644 30646 30636 30611 30590 30597 30588 30584 30594 30599 30592 30607 30590 30582 30580 30592 30594 30599 30599 30580 30590 30568 30588 30594 30578 30578 30578 30582 30611 30611 30626 30625 30640 30632 30626 30607 30615 30609 30615 30623 30617 30632 30630 30623 30628 30648 30640 30669 30683 30683 30679 30681 30692 30681 30663 30623 30588 30503 30337 30159 30074 30033 29973 29963 29981 29981 29981 29963 30002 
30099 30101 30109 30113 30109 30090 30119 30107 30111 30092 30103 30099 30099 30115 30131 30101 30103 30101 30109 30094 30101 30090 30076 30101 30088 30090 30076 30080 30090 30058 30050 30035 30008 29996 29957 29940 29928 29936 29917 29896 29890 29884 29880 29919 29907 29888 29880 29884 29890 29905 29913 29917 29892 29898 29934 30002 30192 30399 30462 30501 30525 30562 30574 30605 30611 30613 30607 30607 30630 30661 30675 30688 30694 30681 30690 30661 30677 30661 30665 30657 
30657 30650 30656 30665 30667 30671 30667 30677 30675 30654 30632 30642 30638 30630 30630 30621 30599 30605 30601 30599 30599 30611 30605 30603 30592 30607 30611 30617 30601 30617 30595 30603 30588 30594 30568 30578 30558 30572 30595 30595 30623 30619 30636 30623 30634 30617 30623 30615 30621 30621 30601 30607 30599 30617 30623 30625 30638 30638 30661 30667 30679 30687 30687 30669 30630 30594 30485 30321 30174 30054 30010 29998 29973 29994 29981 29998 29990 30006 30008 30023 
30113 30113 30092 30117 30096 30105 30127 30123 30105 30111 30096 30103 30105 30125 30131 30111 30121 30113 30105 30086 30103 30080 30082 30123 30115 30076 30094 30105 30107 30092 30080 30072 30060 30002 30002 29955 29934 29932 29928 29892 29894 29888 29901 29911 29907 29888 29886 29894 29890 29898 29903 29915 29898 29944 30037 30241 30407 30472 30511 30533 30547 30580 30599 30630 30617 30611 30613 30603 30642 30667 30677 30706 30704 30698 30681 30681 30677 30679 30665 30657 
30659 30667 30657 30667 30669 30667 30667 30673 30661 30665 30654 30654 30650 30636 30632 30644 30621 30619 30617 30625 30607 30615 30611 30625 30619 30621 30623 30630 30623 30636 30611 30605 30582 30586 30582 30578 30560 30578 30570 30611 30603 30621 30638 30640 30626 30625 30625 30626 30613 30619 30605 30605 30623 30609 30623 30626 30642 30640 30652 30659 30679 30663 30642 30574 30478 30327 30149 30066 30023 29992 29996 29986 29994 30000 29984 30008 30035 30043 30045 30076 
30109 30119 30103 30101 30105 30086 30119 30119 30096 30107 30088 30103 30105 30113 30117 30088 30127 30119 30109 30099 30101 30074 30092 30101 30111 30099 30088 30109 30107 30092 30088 30076 30076 30056 30033 29998 29979 29951 29926 29894 29888 29898 29888 29905 29888 29894 29896 29886 29896 29903 29901 29915 29928 30047 30269 30436 30482 30499 30545 30558 30586 30594 30597 30625 30626 30609 30617 30615 30636 30667 30685 30696 30700 30681 30688 30673 30683 30677 30683 30669 
30669 30661 30667 30656 30654 30669 30667 30675 30671 30663 30661 30663 30648 30652 30634 30646 30644 30648 30650 30621 30619 30619 30625 30625 30623 30640 30644 30638 30656 30621 30611 30595 30580 30592 30582 30578 30554 30570 30576 30592 30597 30626 30640 30642 30632 30619 30619 30617 30621 30611 30611 30595 30615 30605 30617 30623 30630 30632 30638 30607 30552 30462 30353 30224 30125 30047 30012 30012 29973 29986 29986 29996 30023 30023 30033 30090 30092 30153 30206 30297 
30099 30099 30107 30109 30096 30099 30103 30105 30094 30099 30090 30103 30092 30088 30135 30115 30117 30119 30111 30109 30121 30088 30092 30123 30084 30105 30086 30099 30105 30096 30096 30103 30072 30072 30074 30043 30035 30004 29948 29892 29896 29890 29888 29894 29894 29892 29896 29905 29907 29892 29934 29965 30099 30319 30432 30484 30515 30550 30568 30582 30597 30605 30605 30605 30594 30603 30619 30613 30626 30656 30665 30690 30683 30679 30679 30679 30688 30675 30679 30679 
30667 30663 30659 30656 30657 30671 30669 30667 30677 30677 30661 30671 30671 30669 30663 30665 30679 30690 30677 30667 30632 30648 30648 30625 30642 30638 30654 30650 30646 30623 30603 30595 30592 30590 30574 30586 30576 30576 30578 30590 30609 30628 30648 30646 30640 30634 30615 30621 30621 30625 30615 30619 30628 30609 30603 30595 30576 30505 30421 30279 30164 30088 30066 30037 30029 30010 30019 30025 30014 30010 30027 30074 30105 30133 30184 30301 30341 30403 30472 30537 
30109 30101 30105 30107 30094 30101 30117 30105 30105 30125 30111 30111 30105 30115 30137 30123 30113 30115 30103 30123 30129 30121 30105 30119 30109 30094 30109 30107 30115 30107 30109 30094 30099 30088 30092 30074 30070 30062 29992 29905 29892 29890 29896 29903 29898 29892 29892 29894 29905 29928 29979 30178 30347 30440 30495 30517 30543 30570 30580 30595 30597 30605 30599 30592 30584 30590 30617 30617 30628 30646 30657 30677 30675 30675 30692 30687 30704 30681 30679 30702 
30675 30675 30671 30671 30667 30671 30675 30671 30677 30675 30673 30683 30688 30683 30696 30700 30706 30723 30727 30719 30702 30683 30667 30661 30654 30659 30657 30642 30626 30617 30594 30603 30586 30592 30584 30584 30576 30584 30580 30601 30611 30626 30636 30654 30667 30654 30646 30646 30626 30626 30625 30617 30605 30570 30480 30379 30277 30170 30103 30035 30017 30021 30037 30029 30056 30045 30072 30072 30094 30121 30182 30287 30367 30436 30507 30564 30570 30566 30594 30613 


