P2
80 60
30812
30111 30084 30107 30084 30080 30072 30070 30064 30056 30062 30041 30052 30047 30033 30045 30045 30047 30070 30052 30039 30035 30043 30029 30019 30008 30021 30012 30027 30010 30000 30008 29994 30019 29986 29990 29965 29965 29955 29948 29963 29930 29917 29909 29909 29915 29905 29913 29896 29898 29907 29884 29909 29896 29886 29877 29871 29894 29905 29907 29907 29907 29924 29919 29928 29917 29919 29911 29913 29917 29919 29909 29903 29915 29934 29940 29936 29942 29994 30149 30385 
30521 30529 30482 30303 30029 29928 29928 29911 29903 29909 29924 29913 29911 29901 29894 29924 29907 29898 29917 29921 29917 29911 29938 29924 29919 29915 29905 29896 29926 29926 29917 29913 29921 29934 29926 29928 29915 29917 29924 29921 29915 29913 29924 29930 29934 29926 29919 29921 29921 29928 29921 29938 29932 29924 29936 29926 29932 29934 29930 29944 29928 29930 29944 29936 29934 29938 29938 29936 29959 29940 29959 29953 29963 29936 29944 29957 29969 29948 29963 29969 
30113 30078 30078 30080 30064 30070 30086 30050 30058 30050 30050 30056 30058 30027 30041 30045 30043 30062 30078 30052 30062 30060 30019 30027 30014 30025 30021 30027 30002 30012 30010 29992 30000 29981 29984 29969 29975 29957 29961 29959 29932 29898 29919 29915 29896 29901 29896 29903 29903 29896 29882 29903 29894 29894 29896 29892 29896 29894 29903 29886 29888 29921 29909 29903 29915 29915 29911 29917 29915 29894 29911 29917 29909 29913 29934 29963 30023 30216 30485 30584 
30597 30588 30543 30485 30239 29959 29924 29926 29911 29905 29924 29924 29898 29905 29901 29909 29898 29907 29909 29909 29898 29917 29928 29915 29919 29909 29905 29896 29913 29913 29919 29917 29909 29924 29907 29919 29917 29917 29917 29911 29913 29915 29928 29932 29919 29924 29921 29919 29909 29921 29930 29938 29940 29926 29921 29921 29934 29917 29921 29924 29926 29932 29951 29930 29934 29951 29953 29924 29946 29965 29938 29951 29946 29940 29934 29951 29963 29955 29963 29963 
30117 30101 30090 30076 30064 30090 30078 30072 30080 30047 30060 30056 30047 30052 30039 30045 30064 30062 30080 30072 30074 30086 30058 30056 30010 30019 30025 30019 29994 30010 30010 30006 30002 29988 29981 29988 29969 29975 29951 29959 29924 29917 29911 29921 29909 29924 29905 29903 29901 29907 29896 29896 29886 29894 29892 29905 29896 29898 29886 29924 29913 29917 29915 29911 29915 29917 29907 29915 29911 29917 29907 29909 29926 29936 29951 30047 30299 30523 30609 30615 
30613 30597 30578 30511 30359 30006 29938 29926 29905 29911 29909 29924 29907 29913 29915 29913 29907 29905 29934 29924 29915 29915 29928 29911 29913 29905 29896 29909 29907 29917 29924 29913 29911 29924 29921 29924 29909 29919 29915 29924 29905 29911 29936 29928 29926 29911 29921 29903 29919 29930 29938 29936 29944 29938 29924 29934 29921 29934 29930 29936 29930 29932 29942 29938 29930 29928 29936 29955 29957 29953 29951 29971 29940 29946 29936 29953 29953 29942 29944 29971 
30121 30088 30111 30080 30072 30101 30092 30074 30068 30056 30035 30052 30050 30045 30047 30052 30068 30078 30078 30078 30088 30113 30082 30060 30033 30027 30019 30031 30002 30008 30025 30006 30004 29988 29990 29969 29969 29981 29957 29977 29928 29901 29907 29919 29919 29909 29907 29894 29896 29905 29880 29894 29884 29907 29888 29898 29892 29898 29894 29898 29913 29913 29903 29911 29924 29930 29913 29911 29919 29909 29919 29930 29924 29948 30041 30313 30547 30615 30638 30613 
30601 30603 30572 30484 30315 29988 29930 29917 29915 29924 29926 29926 29913 29907 29896 29924 29915 29894 29913 29911 29909 29928 29917 29913 29921 29911 29911 29901 29907 29915 29919 29921 29911 29934 29919 29909 29915 29915 29909 29924 29915 29917 29926 29926 29928 29911 29907 29907 29928 29924 29940 29928 29940 29934 29924 29930 29930 29926 29928 29921 29932 29936 29944 29948 29940 29951 29946 29959 29946 29948 29955 29953 29957 29940 29940 29961 29953 29953 29953 29946 
30115 30113 30094 30090 30074 30072 30074 30074 30054 30052 30047 30050 30050 30043 30045 30078 30068 30086 30088 30092 30111 30111 30096 30094 30072 30031 30035 30047 30012 30017 30023 30010 30014 29992 29984 29963 29971 29975 29957 29965 29921 29909 29909 29924 29913 29915 29911 29903 29886 29892 29894 29896 29901 29901 29898 29905 29894 29907 29913 29892 29905 29919 29905 29913 29930 29924 29919 29919 29926 29905 29915 29917 29953 30021 30303 30548 30603 30626 30630 30630 
30611 30594 30537 30436 30153 29955 29928 29917 29911 29924 29934 29921 29898 29894 29909 29919 29896 29903 29921 29911 29926 29930 29924 29926 29926 29905 29915 29915 29913 29919 29924 29907 29932 29915 29924 29911 29913 29911 29915 29913 29924 29917 29924 29911 29919 29919 29928 29921 29924 29926 29928 29924 29928 29919 29924 29924 29936 29930 29915 29915 29924 29938 29938 29934 29932 29924 29938 29944 29948 29953 29936 29957 29975 29942 29940 29930 29940 29969 29948 29967 
30115 30088 30090 30092 30094 30090 30078 30076 30072 30064 30054 30070 30060 30037 30047 30058 30072 30084 30088 30103 30115 30119 30111 30107 30109 30078 30080 30058 30012 30027 30039 30010 30008 30019 30004 29975 29975 29971 29973 29975 29917 29944 29948 29909 29905 29911 29909 29911 29905 29892 29915 29901 29919 29915 29907 29901 29896 29896 29913 29911 29890 29913 29919 29921 29919 29909 29913 29917 29919 29913 29926 29940 30010 30295 30533 30605 30626 30621 30619 30623 
30601 30564 30491 30289 30002 29936 29938 29917 29915 29913 29921 29930 29907 29913 29928 29924 29905 29915 29921 29907 29919 29926 29948 29921 29919 29913 29919 29917 29917 29911 29917 29917 29909 29921 29924 29919 29911 29919 29924 29919 29909 29928 29930 29909 29924 29932 29926 29915 29915 29924 29924 29932 29942 29934 29928 29936 29926 29936 29928 29936 29926 29936 29957 29934 29940 29921 29932 29938 29936 29946 29959 29942 29944 29948 29940 29951 29938 29953 29961 29963 
30109 30086 30094 30084 30076 30078 30080 30076 30076 30041 30058 30045 30050 30027 30041 30054 30072 30103 30090 30096 30115 30115 30113 30113 30111 30107 30084 30062 30014 30021 30037 30019 30027 30002 29988 29981 29969 29969 29951 29963 29926 29944 29948 29909 29915 29913 29901 29911 29905 29907 29903 29905 29913 29917 29903 29898 29894 29896 29894 29901 29909 29915 29909 29917 29917 29921 29907 29913 29928 29930 29948 29988 30245 30535 30619 30642 30652 30640 30617 30603 
30572 30489 30373 30076 29946 29919 29928 29917 29915 29911 29911 29911 29903 29911 29917 29924 29926 29913 29911 29921 29930 29936 29946 29940 29938 29928 29921 29936 29911 29924 29921 29911 29930 29926 29909 29915 29921 29919 29924 29911 29911 29917 29915 29915 29926 29919 29909 29921 29915 29915 29919 29934 29948 29934 29924 29915 29917 29909 29928 29928 29928 29926 29934 29934 29907 29926 29936 29936 29940 29944 29951 29948 29963 29946 29944 29955 29938 29946 29948 29934 
30117 30082 30090 30101 30084 30070 30072 30096 30070 30058 30060 30047 30056 30043 30043 30070 30068 30072 30094 30099 30129 30139 30121 30127 30125 30127 30101 30076 30035 30041 30043 30017 30029 30012 29994 29996 29992 29973 29961 29977 29930 29919 29919 29938 29932 29909 29921 29911 29909 29915 29915 29928 29930 29932 29917 29919 29911 29905 29896 29901 29911 29928 29911 29926 29921 29926 29913 29917 29936 29951 30021 30231 30517 30628 30675 30675 30673 30665 30623 30599 
30533 30450 30145 29963 29928 29930 29930 29926 29909 29928 29930 29921 29911 29903 29919 29911 29907 29917 29926 29936 29948 29967 29984 29988 29996 29948 29951 29936 29926 29924 29917 29926 29940 29924 29934 29924 29901 29911 29924 29921 29924 29926 29911 29911 29930 29928 29911 29924 29917 29924 29924 29928 29944 29938 29921 29930 29930 29917 29944 29948 29928 29944 29948 29932 29938 29934 29936 29944 29940 29959 29973 29979 29942 29961 29946 29951 29948 29940 29953 29936 
30105 30088 30094 30084 30066 30090 30082 30080 30066 30064 30045 30052 30060 30054 30043 30054 30064 30084 30072 30096 30123 30127 30147 30137 30107 30137 30115 30099 30074 30068 30035 30029 30033 30004 30008 30006 29977 29977 29971 29967 29936 29921 29907 29936 29915 29921 29928 29909 29919 29913 29924 29901 29919 29930 29909 29909 29919 29901 29907 29909 29896 29913 29926 29928 29936 29915 29917 29944 29953 29975 30192 30503 30611 30657 30667 30677 30671 30673 30648 30592 
30489 30245 29994 29938 29928 29913 29924 29917 29917 29921 29928 29932 29917 29909 29907 29919 29913 29934 29936 29967 29998 30066 30222 30323 30317 30178 30014 29948 29934 29915 29926 29911 29938 29926 29917 29917 29915 29913 29913 29917 29917 29932 29926 29924 29930 29915 29911 29940 29942 29934 29936 29913 29930 29928 29932 29921 29940 29915 29917 29926 29911 29934 29944 29942 29919 29944 29940 29955 29955 29948 29948 29940 29961 29957 29951 29957 29944 29940 29965 29946 
30125 30105 30105 30096 30084 30101 30088 30068 30070 30062 30056 30058 30068 30050 30054 30068 30056 30066 30076 30090 30131 30137 30137 30151 30155 30133 30109 30137 30133 30107 30064 30039 30045 30023 30006 29992 29979 29977 29975 29971 29932 29905 29934 29932 29913 29919 29915 29905 29911 29928 29919 29921 29921 29930 29901 29921 29909 29917 29911 29911 29913 29930 29919 29936 29938 29936 29934 29965 30004 30131 30474 30601 30625 30652 30661 30659 30677 30687 30634 30570 
30343 30052 29959 29942 29928 29917 29917 29911 29911 29917 29930 29924 29928 29915 29921 29936 29938 29955 30006 30103 30263 30466 30562 30584 30601 30541 30351 30043 29944 29930 29944 29924 29919 29919 29930 29921 29934 29907 29915 29926 29913 29930 29919 29932 29936 29934 29903 29911 29921 29934 29934 29915 29940 29926 29934 29930 29940 29926 29928 29932 29932 29934 29948 29926 29928 29934 29940 29936 29959 29948 29948 29948 29957 29951 29938 29973 29951 29955 29965 29953 
30119 30107 30105 30101 30090 30101 30090 30082 30086 30080 30052 30068 30060 30045 30066 30068 30066 30078 30082 30096 30131 30147 30143 30149 30166 30147 30123 30129 30147 30131 30092 30060 30062 30025 30027 30017 29998 29990 29979 29971 29911 29915 29928 29928 29934 29930 29924 29907 29915 29919 29932 29924 29934 29921 29928 29924 29911 29917 29934 29919 29915 29934 29928 29932 29934 29942 29946 29984 30094 30417 30601 30630 30638 30657 30661 30677 30677 30667 30621 30456 
30103 29984 29944 29930 29909 29913 29932 29924 29911 29917 29938 29921 29926 29924 29946 29957 29977 30080 30279 30489 30564 30595 30625 30634 30650 30623 30586 30353 30008 29942 29934 29924 29930 29919 29928 29921 29915 29928 29926 29926 29921 29921 29930 29934 29932 29932 29926 29921 29924 29926 29940 29934 29932 29942 29924 29917 29926 29932 29936 29942 29936 29934 29938 29940 29930 29930 29944 29957 29942 29963 29959 29946 29951 29965 29940 29961 29938 29951 29955 29955 
30125 30121 30094 30096 30088 30090 30072 30078 30090 30066 30072 30080 30062 30050 30054 30078 30058 30068 30064 30084 30115 30135 30143 30143 30151 30151 30129 30137 30139 30143 30107 30088 30064 30033 30023 30012 29998 29996 29969 29975 29942 29932 29921 29921 29913 29928 29921 29915 29911 29921 29909 29907 29942 29919 29919 29913 29919 29919 29911 29913 29913 29930 29928 29930 29938 29955 29959 30050 30339 30578 30628 30650 30644 30667 30663 30661 30667 30640 30521 30161 
29979 29942 29924 29917 29911 29919 29928 29911 29924 29942 29928 29948 29930 29932 29969 30043 30237 30470 30584 30601 30609 30609 30626 30644 30646 30644 30626 30523 30125 29946 29942 29936 29936 29932 29913 29919 29913 29932 29928 29919 29930 29932 29926 29919 29938 29926 29921 29921 29926 29921 29921 29938 29917 29928 29934 29934 29940 29928 29932 29932 29936 29938 29944 29934 29928 29934 29940 29946 29957 29942 29936 29957 29951 29955 29955 29951 29951 29965 29961 29948 
30168 30137 30125 30111 30099 30094 30101 30105 30088 30090 30088 30064 30082 30054 30058 30066 30074 30090 30078 30088 30107 30125 30137 30141 30145 30153 30141 30168 30157 30151 30139 30129 30088 30047 30035 30019 30019 30023 29969 29994 29934 29936 29928 29915 29932 29926 29924 29919 29924 29926 29924 29921 29919 29926 29919 29930 29909 29911 29930 29924 29919 29932 29928 29959 29946 29965 30010 30239 30576 30632 30656 30656 30665 30677 30665 30656 30654 30576 30273 30019 
29965 29928 29924 29928 29915 29907 29932 29926 29926 29942 29944 29969 29975 30021 30159 30403 30570 30642 30650 30640 30621 30625 30640 30648 30663 30657 30652 30582 30220 29971 29946 29932 29940 29928 29915 29913 29921 29930 29928 29930 29926 29938 29948 29932 29924 29942 29919 29926 29934 29934 29932 29928 29932 29940 29930 29924 29926 29926 29930 29940 29911 29940 29948 29932 29932 29940 29946 29948 29955 29955 29934 29948 29946 29959 29975 29955 29965 29971 29969 29975 
30141 30127 30137 30125 30096 30103 30086 30101 30092 30082 30078 30080 30062 30058 30076 30084 30076 30078 30084 30088 30080 30115 30141 30131 30147 30157 30149 30159 30161 30155 30135 30143 30135 30064 30047 30052 30029 30002 29973 29984 29946 29921 29917 29934 29934 29928 29932 29917 29930 29928 29924 29924 29919 29930 29915 29911 29926 29928 29913 29936 29921 29934 29942 29953 29967 30008 30137 30480 30634 30667 30685 30683 30687 30692 30669 30669 30628 30434 30072 29981 
29936 29930 29921 29930 29926 29924 29936 29940 29946 29959 29988 30062 30172 30365 30558 30648 30656 30673 30663 30636 30654 30644 30648 30673 30673 30673 30652 30566 30218 29957 29951 29936 29921 29926 29928 29921 29921 29919 29921 29921 29932 29934 29930 29919 29926 29919 29930 29924 29932 29932 29936 29944 29926 29921 29928 29921 29928 29934 29928 29930 29930 29934 29951 29932 29936 29936 29953 29938 29951 29953 29963 29971 29963 29944 29963 29957 29951 29963 29961 29959 
30143 30121 30119 30119 30117 30129 30111 30103 30096 30090 30086 30076 30072 30050 30064 30062 30066 30096 30088 30076 30076 30084 30109 30111 30153 30157 30153 30172 30178 30139 30133 30164 30135 30103 30070 30047 30037 30004 29979 29981 29942 29924 29924 29907 29942 29917 29924 29915 29924 29936 29930 29928 29919 29930 29926 29915 29926 29926 29917 29917 29936 29940 29940 29967 30012 30137 30456 30592 30656 30671 30692 30700 30696 30702 30679 30675 30572 30184 29994 29953 
29942 29926 29926 29919 29946 29932 29944 29965 29992 30076 30196 30422 30550 30626 30679 30687 30687 30685 30677 30673 30656 30654 30667 30659 30681 30663 30617 30493 30109 29967 29940 29932 29938 29921 29919 29924 29921 29917 29919 29928 29936 29930 29917 29926 29924 29924 29934 29932 29924 29921 29942 29928 29928 29930 29932 29930 29936 29921 29921 29930 29936 29924 29953 29930 29932 29919 29938 29955 29946 29953 29955 29959 29948 29948 29946 29957 29961 29961 29942 29940 
30139 30139 30131 30129 30117 30137 30133 30109 30092 30099 30088 30084 30092 30078 30078 30080 30088 30103 30088 30090 30078 30078 30078 30103 30131 30149 30153 30170 30168 30153 30149 30155 30168 30168 30119 30072 30041 30019 29992 29992 29944 29926 29917 29924 29926 29921 29936 29924 29934 29930 29928 29911 29936 29938 29928 29936 29934 29930 29926 29917 29942 29961 29971 30000 30166 30462 30590 30644 30640 30679 30706 30704 30716 30719 30696 30638 30393 30029 29965 29946 
29944 29934 29924 29932 29932 29951 29992 30070 30212 30450 30562 30646 30646 30679 30692 30708 30702 30702 30698 30675 30677 30661 30657 30673 30657 30638 30564 30220 30000 29938 29942 29913 29936 29909 29926 29921 29936 29919 29926 29932 29919 29928 29926 29913 29926 29930 29926 29917 29932 29919 29932 29926 29924 29926 29932 29915 29940 29924 29921 29942 29921 29940 29938 29946 29926 29940 29940 29942 29965 29953 29946 29959 29957 29944 29944 29953 29944 29944 29953 29959 
30145 30145 30131 30117 30125 30141 30133 30121 30115 30109 30103 30088 30074 30099 30076 30082 30086 30099 30076 30086 30090 30086 30072 30076 30101 30143 30157 30174 30182 30157 30172 30166 30182 30164 30147 30111 30066 30039 29994 30021 29942 29934 29932 29932 29917 29936 29930 29936 29934 29921 29919 29932 29948 29928 29938 29934 29926 29921 29926 29930 29948 29965 30027 30180 30487 30605 30636 30659 30659 30685 30702 30708 30721 30743 30702 30545 30115 29971 29940 29942 
29934 29928 29932 29940 29975 30025 30178 30417 30574 30636 30657 30677 30677 30673 30708 30714 30718 30710 30698 30690 30677 30675 30659 30652 30613 30452 30170 30000 29948 29938 29934 29924 29932 29930 29921 29926 29917 29930 29934 29936 29934 29924 29932 29917 29932 29926 29919 29919 29919 29917 29926 29911 29921 29924 29940 29928 29936 29919 29917 29915 29919 29940 29936 29930 29930 29944 29940 29951 29957 29957 29936 29944 29961 29951 29957 29957 29928 29953 29967 29932 
30141 30147 30139 30161 30129 30145 30129 30123 30135 30133 30096 30113 30084 30090 30086 30092 30094 30103 30090 30096 30084 30076 30082 30086 30078 30147 30166 30178 30184 30180 30168 30168 30182 30180 30180 30149 30155 30117 30031 30023 29940 29928 29930 29932 29915 29930 29926 29919 29930 29921 29926 29926 29938 29932 29921 29946 29930 29932 29930 29948 29961 30025 30180 30495 30611 30654 30671 30673 30675 30692 30727 30725 30731 30723 30634 30273 30012 29948 29946 29936 
29942 29953 29969 29996 30092 30347 30556 30626 30654 30671 30690 30696 30685 30685 30704 30721 30733 30725 30729 30706 30706 30667 30609 30484 30259 30066 29977 29946 29961 29930 29938 29934 29942 29948 29951 29932 29938 29926 29934 29932 29932 29924 29930 29917 29932 29926 29938 29928 29934 29934 29928 29928 29919 29932 29928 29938 29942 29917 29932 29930 29928 29928 29936 29942 29944 29940 29940 29944 29951 29951 29944 29946 29957 29957 29951 29948 29942 29957 29951 29963 
30157 30131 30145 30133 30137 30149 30141 30123 30139 30133 30121 30117 30121 30111 30107 30109 30103 30105 30082 30094 30080 30074 30078 30078 30068 30109 30147 30180 30178 30164 30170 30172 30198 30172 30186 30168 30182 30151 30105 30043 29953 29915 29930 29932 29932 29932 29928 29924 29930 29917 29942 29930 29953 29930 29924 29936 29942 29948 29946 29963 30027 30186 30501 30625 30663 30673 30683 30687 30687 30690 30725 30729 30716 30661 30379 30068 29975 29944 29942 29930 
29965 29990 30047 30210 30468 30621 30669 30671 30692 30696 30710 30714 30714 30704 30725 30721 30735 30743 30727 30700 30663 30529 30301 30103 30014 29965 29951 29942 29928 29932 29930 29946 29977 29975 29990 30014 29969 29953 29951 29932 29928 29934 29926 29926 29930 29921 29924 29921 29928 29930 29924 29919 29940 29932 29930 29934 29928 29932 29921 29926 29930 29926 29934 29942 29930 29930 29930 29944 29953 29946 29948 29938 29953 29948 29955 29953 29951 29951 29942 29951 
30166 30161 30155 30143 30143 30145 30123 30139 30153 30153 30141 30149 30139 30131 30133 30117 30127 30127 30109 30088 30090 30084 30078 30084 30084 30111 30143 30190 30186 30190 30182 30180 30188 30200 30194 30186 30190 30161 30159 30041 29948 29928 29934 29938 29942 29932 29940 29930 29934 29932 29938 29946 29953 29946 29948 29934 29951 29955 29979 30037 30202 30491 30630 30673 30685 30681 30696 30704 30708 30706 30708 30702 30661 30458 30105 29990 29946 29944 29957 29973 
30039 30151 30365 30568 30657 30687 30710 30716 30712 30718 30737 30729 30716 30716 30727 30749 30743 30743 30702 30590 30353 30147 30027 29977 29961 29955 29930 29940 29944 29961 29984 29996 30105 30251 30397 30415 30271 30056 29955 29938 29936 29942 29944 29932 29932 29938 29924 29911 29917 29921 29936 29936 29934 29926 29924 29917 29932 29924 29934 29928 29930 29938 29953 29946 29938 29932 29948 29946 29951 29963 29965 29961 29944 29942 29946 29948 29961 29957 29955 29957 
30182 30147 30149 30149 30133 30141 30147 30123 30147 30151 30119 30141 30141 30121 30139 30151 30147 30141 30119 30099 30101 30092 30070 30088 30084 30090 30111 30149 30184 30153 30184 30180 30206 30198 30190 30190 30172 30168 30145 30047 29957 29926 29934 29934 29932 29942 29932 29936 29946 29946 29928 29946 29977 29961 29946 29971 29961 29994 30041 30239 30525 30652 30700 30700 30690 30704 30708 30723 30706 30714 30692 30657 30480 30125 29992 29967 29959 29969 30002 30096 
30319 30529 30625 30671 30700 30723 30729 30714 30718 30729 30729 30733 30729 30716 30729 30735 30719 30648 30460 30168 30043 29996 29973 29953 29942 29946 29942 29969 29979 30014 30117 30299 30466 30564 30582 30594 30580 30411 30060 29957 29942 29932 29926 29938 29919 29928 29940 29913 29928 29930 29926 29928 29921 29930 29921 29917 29932 29915 29928 29934 29934 29934 29946 29924 29930 29955 29946 29944 29948 29957 29942 29940 29944 29944 29930 29938 29948 29957 29959 29944 
30157 30145 30143 30157 30147 30135 30153 30123 30135 30143 30133 30153 30151 30147 30133 30139 30143 30151 30131 30131 30115 30103 30103 30080 30086 30088 30099 30119 30161 30172 30168 30180 30200 30188 30212 30180 30196 30190 30184 30045 29969 29936 29938 29934 29919 29930 29940 29926 29940 29936 29944 29946 29948 29957 29965 29961 30027 30161 30419 30578 30657 30687 30714 30710 30704 30716 30727 30718 30714 30702 30679 30519 30178 29998 29959 29959 29969 30031 30192 30444 
30609 30652 30683 30692 30714 30731 30741 30735 30723 30731 30743 30737 30725 30719 30710 30669 30525 30265 30084 29998 29990 29955 29955 29944 29953 29967 29977 30029 30147 30317 30505 30562 30586 30603 30607 30623 30636 30603 30281 29973 29940 29932 29926 29913 29930 29919 29915 29909 29915 29924 29924 29919 29928 29928 29921 29913 29921 29915 29913 29934 29919 29940 29932 29940 29934 29942 29948 29951 29957 29938 29938 29942 29944 29936 29946 29940 29955 29936 29955 29940 
30155 30135 30135 30131 30145 30139 30131 30143 30164 30147 30129 30168 30129 30149 30141 30161 30161 30153 30141 30147 30139 30111 30111 30099 30092 30084 30094 30103 30111 30145 30170 30186 30178 30198 30224 30194 30198 30208 30180 30052 29951 29936 29944 29930 29936 29934 29938 29934 29934 29959 29957 29953 29961 29977 30008 30082 30289 30527 30644 30675 30698 30702 30700 30702 30712 30718 30727 30731 30727 30706 30592 30237 30033 29979 29969 29977 30076 30287 30529 30630 
30673 30665 30696 30721 30723 30747 30758 30754 30743 30752 30756 30743 30723 30687 30615 30381 30113 30023 29994 29967 29965 29963 29969 29988 30017 30062 30174 30369 30539 30588 30582 30582 30607 30617 30615 30632 30659 30650 30485 30025 29953 29940 29928 29934 29915 29924 29913 29911 29917 29917 29930 29924 29930 29921 29921 29924 29928 29917 29932 29938 29917 29944 29946 29948 29930 29946 29936 29942 29942 29948 29944 29946 29942 29942 29938 29936 29946 29955 29953 29932 
30149 30123 30137 30137 30141 30133 30131 30147 30161 30153 30149 30168 30149 30164 30155 30157 30166 30157 30151 30149 30149 30157 30133 30092 30088 30082 30109 30092 30092 30121 30159 30184 30198 30204 30214 30200 30206 30208 30178 30058 29965 29942 29936 29946 29942 29940 29932 29940 29942 29946 29967 29973 30000 30035 30200 30432 30619 30673 30692 30702 30698 30706 30692 30694 30700 30712 30723 30739 30729 30640 30315 30058 30002 29981 30014 30105 30379 30588 30648 30671 
30679 30675 30702 30714 30733 30743 30768 30783 30768 30758 30775 30743 30694 30564 30257 30070 30004 29967 29955 29967 29996 30006 30068 30159 30317 30491 30623 30648 30644 30623 30599 30592 30609 30632 30632 30644 30663 30663 30525 30060 29971 29936 29934 29926 29903 29934 29921 29917 29930 29926 29946 29911 29928 29930 29919 29915 29932 29926 29942 29930 29928 29934 29940 29934 29940 29942 29948 29951 29963 29955 29942 29942 29973 29955 29951 29951 29938 29953 29965 29963 
30157 30139 30133 30139 30137 30135 30125 30141 30155 30155 30143 30168 30139 30147 30157 30170 30155 30151 30145 30137 30170 30188 30168 30143 30123 30111 30113 30109 30094 30109 30137 30161 30204 30212 30212 30198 30212 30196 30176 30050 29961 29944 29936 29940 29944 29936 29938 29944 29961 29963 29981 30014 30115 30323 30582 30681 30700 30716 30725 30723 30704 30704 30675 30690 30698 30690 30698 30729 30698 30529 30174 30068 30031 30050 30161 30434 30630 30663 30681 30665 
30677 30688 30696 30718 30723 30739 30775 30791 30791 30795 30766 30675 30482 30184 30035 29994 29963 29990 29986 30047 30133 30289 30472 30601 30683 30712 30714 30694 30671 30623 30607 30605 30607 30621 30621 30640 30652 30642 30513 30060 29961 29944 29928 29934 29921 29930 29913 29913 29924 29936 29934 29936 29926 29930 29930 29915 29928 29926 29926 29936 29924 29934 29934 29930 29932 29926 29946 29940 29965 29944 29942 29938 29971 29959 29953 29951 29946 29951 29965 29969 
30176 30135 30139 30145 30127 30135 30141 30145 30137 30149 30141 30155 30145 30157 30153 30161 30159 30159 30174 30176 30166 30190 30194 30182 30184 30145 30129 30115 30094 30125 30141 30170 30224 30214 30206 30198 30198 30202 30196 30047 29959 29940 29944 29963 29961 29951 29959 29961 29979 29988 30023 30178 30446 30656 30712 30735 30745 30750 30723 30708 30698 30690 30681 30685 30683 30663 30675 30688 30679 30625 30505 30387 30315 30383 30545 30652 30692 30704 30692 30683 
30690 30688 30706 30729 30735 30752 30785 30810 30808 30766 30646 30369 30113 30019 29996 29981 30006 30078 30233 30421 30584 30652 30708 30712 30719 30727 30741 30706 30679 30640 30623 30613 30617 30636 30630 30636 30636 30599 30357 30012 29961 29942 29951 29924 29924 29936 29942 29928 29934 29938 29957 29942 29951 29957 29942 29936 29963 29951 29930 29948 29942 29946 29942 29944 29951 29948 29961 29948 29959 29955 29955 29967 29957 29959 29959 29967 29975 29979 29973 29981 
30166 30147 30141 30151 30145 30139 30135 30139 30127 30135 30127 30159 30180 30155 30155 30182 30157 30159 30170 30159 30184 30190 30200 30190 30200 30178 30164 30141 30151 30143 30182 30196 30224 30210 30210 30200 30184 30208 30194 30031 29967 29948 29944 29953 29946 29963 29971 29975 29996 30074 30285 30537 30683 30735 30785 30777 30762 30749 30725 30716 30698 30694 30683 30679 30663 30644 30659 30654 30657 30646 30632 30640 30644 30661 30692 30685 30708 30710 30700 30702 
30702 30694 30700 30716 30737 30758 30783 30774 30704 30529 30265 30074 30025 30012 30031 30099 30277 30468 30613 30665 30694 30716 30718 30712 30731 30727 30731 30723 30700 30654 30632 30625 30630 30634 30625 30617 30607 30487 30153 29996 29961 29984 29965 29953 29951 29959 29957 29961 29963 29946 29965 29961 29944 29965 29965 29951 29959 29946 29965 29969 29944 29940 29959 29953 29959 29959 29971 29961 29967 29963 29963 29979 29973 29965 29979 29971 29977 29971 29992 29986 
30161 30151 30147 30147 30135 30129 30127 30131 30121 30145 30139 30141 30141 30147 30157 30168 30174 30157 30137 30172 30192 30194 30202 30196 30200 30176 30196 30206 30192 30194 30196 30214 30210 30206 30212 30198 30202 30214 30194 30033 29951 29948 29959 29965 29977 29969 29988 30021 30170 30413 30615 30685 30745 30798 30804 30800 30764 30749 30725 30698 30679 30671 30673 30657 30654 30640 30626 30626 30628 30632 30646 30661 30665 30688 30690 30698 30721 30718 30721 30702 
30708 30698 30704 30714 30727 30735 30719 30566 30303 30139 30068 30054 30078 30196 30337 30545 30638 30685 30679 30683 30706 30706 30698 30700 30719 30714 30719 30714 30690 30675 30654 30650 30652 30648 30623 30609 30466 30220 30021 29981 29955 29963 29959 29957 29951 29963 29961 29955 29961 29969 29959 29955 29971 29967 29955 29946 29951 29959 29953 29953 29963 29946 29969 29955 29934 29948 29951 29963 29955 29961 29957 29969 29975 29981 29979 29973 29986 29979 29977 29981 
30170 30168 30145 30151 30149 30145 30151 30139 30143 30127 30141 30139 30135 30151 30151 30170 30155 30153 30157 30157 30176 30206 30204 30196 30198 30198 30190 30218 30194 30212 30198 30198 30204 30206 30200 30204 30200 30200 30170 30027 29965 29959 29955 29986 29990 30012 30058 30239 30501 30644 30679 30745 30783 30800 30798 30812 30774 30754 30723 30692 30675 30667 30661 30646 30640 30634 30594 30586 30599 30615 30640 30656 30657 30669 30688 30704 30733 30731 30745 30723 
30702 30706 30721 30710 30694 30597 30389 30208 30099 30088 30172 30321 30495 30617 30683 30700 30700 30710 30698 30704 30704 30704 30704 30700 30718 30716 30704 30721 30706 30700 30681 30671 30652 30650 30552 30375 30149 30025 29990 29967 29953 29961 29955 29953 29951 29969 29959 29959 29957 29967 29975 29967 29959 29971 29953 29948 29953 29946 29948 29959 29938 29965 29973 29940 29942 29946 29957 29963 29959 29965 29977 29981 29990 29988 29975 29986 29975 29984 29986 29986 
30182 30168 30174 30170 30157 30147 30159 30147 30153 30153 30153 30137 30131 30147 30157 30153 30151 30153 30161 30176 30180 30198 30208 30210 30196 30176 30188 30210 30196 30208 30188 30202 30200 30204 30200 30200 30210 30190 30170 30033 29973 29967 29979 30000 30027 30084 30321 30570 30675 30718 30739 30749 30774 30781 30777 30789 30768 30743 30718 30696 30656 30659 30652 30625 30625 30595 30584 30584 30599 30613 30628 30646 30654 30667 30673 30708 30733 30737 30737 30731 
30727 30708 30683 30623 30434 30249 30129 30109 30241 30421 30556 30640 30669 30688 30708 30721 30737 30718 30708 30698 30710 30702 30694 30694 30718 30708 30725 30733 30716 30694 30692 30657 30584 30432 30204 30060 29988 29977 29961 29961 29961 29959 29959 29957 29967 29948 29953 29957 29946 29961 29965 29963 29955 29965 29957 29959 29965 29940 29948 29963 29961 29951 29955 29948 29951 29957 29975 29975 29973 29977 29981 30012 29996 29994 29996 29977 29992 30000 29984 29986 


