P2
80 60
30673
29963 29959 29965 29944 29934 29938 29940 29951 29940 29930 29948 29946 29942 29932 29932 29921 29938 29934 29953 29913 29936 29934 29926 29938 29948 29932 29932 29938 29924 29924 29930 29932 29917 29924 29911 29934 29924 29942 29911 29930 29926 29924 29928 29932 29915 29928 29919 29926 29928 29911 29921 29915 29932 29905 29909 29928 29905 29921 29917 29915 29917 29915 29903 29913 29905 29907 29905 29926 29928 29917 29913 29930 29926 29934 29963 29998 29998 30010 30050 30147 
30200 30239 30229 30245 30251 30267 30287 30329 30321 30317 30305 30279 30251 30235 30233 30237 30243 30247 30233 30243 30271 30261 30259 30275 30277 30285 30309 30299 30305 30315 30327 30438 30584 30656 30621 30448 30321 30283 30291 30315 30389 30588 30673 30642 30580 30476 30399 30351 30337 30333 30331 30331 30391 30424 30478 30485 30485 30476 30468 30438 30325 30291 30289 30311 30339 30371 30379 30409 30403 30399 30399 30411 30405 30438 30456 30462 30468 30484 30489 30511 
29969 29961 29955 29946 29942 29940 29951 29942 29955 29936 29928 29940 29946 29938 29930 29924 29928 29932 29924 29911 29940 29930 29926 29938 29915 29936 29932 29928 29928 29934 29936 29930 29919 29921 29915 29926 29928 29926 29924 29915 29917 29924 29930 29924 29926 29930 29917 29911 29924 29919 29919 29917 29932 29926 29928 29934 29921 29917 29938 29924 29919 29921 29921 29919 29919 29919 29911 29932 29919 29909 29926 29913 29909 29915 29959 29992 30025 30029 30082 30182 
30233 30237 30245 30253 30269 30289 30295 30313 30285 30247 30229 30214 30214 30208 30231 30249 30253 30253 30247 30243 30259 30255 30263 30265 30257 30245 30239 30253 30265 30295 30289 30349 30507 30642 30636 30491 30347 30301 30291 30291 30339 30547 30646 30663 30603 30519 30426 30363 30327 30335 30333 30335 30365 30387 30442 30460 30487 30460 30421 30359 30291 30291 30317 30351 30393 30417 30424 30434 30436 30434 30434 30448 30448 30474 30474 30497 30507 30513 30478 30480 
29971 29955 29948 29948 29936 29953 29961 29957 29936 29946 29938 29936 29919 29936 29930 29926 29936 29921 29938 29913 29940 29928 29944 29936 29940 29924 29930 29934 29932 29930 29932 29944 29932 29932 29938 29913 29924 29921 29915 29905 29934 29948 29924 29915 29932 29924 29919 29934 29917 29928 29938 29932 29926 29934 29921 29930 29924 29934 29924 29936 29934 29940 29926 29919 29926 29930 29919 29940 29946 29928 29932 29938 29936 29930 29953 30006 30014 30045 30139 30214 
30249 30255 30255 30279 30297 30273 30245 30224 30208 30218 30216 30235 30237 30255 30255 30281 30281 30289 30279 30299 30295 30295 30289 30305 30285 30269 30241 30239 30245 30253 30273 30321 30401 30572 30634 30545 30399 30325 30315 30315 30345 30493 30646 30652 30607 30537 30444 30375 30363 30349 30319 30341 30355 30379 30419 30444 30472 30440 30343 30287 30299 30313 30367 30381 30424 30436 30452 30468 30448 30450 30466 30478 30485 30505 30505 30501 30491 30495 30468 30464 
29967 29963 29953 29942 29938 29942 29953 29944 29946 29951 29932 29928 29951 29926 29936 29926 29940 29957 29930 29924 29938 29928 29928 29944 29932 29921 29938 29934 29934 29936 29932 29924 29913 29919 29919 29919 29919 29926 29926 29915 29928 29940 29942 29934 29936 29919 29909 29921 29942 29924 29921 29921 29919 29934 29921 29924 29915 29913 29915 29938 29928 29936 29926 29919 29924 29926 29930 29946 29932 29930 29924 29944 29938 29936 29948 30017 30041 30066 30190 30229 
30283 30269 30293 30287 30267 30208 30198 30220 30243 30267 30269 30293 30299 30299 30315 30329 30345 30361 30361 30367 30369 30369 30387 30373 30349 30351 30295 30275 30275 30259 30263 30291 30331 30472 30609 30570 30424 30353 30319 30313 30337 30440 30611 30644 30623 30541 30472 30399 30361 30343 30335 30335 30349 30369 30385 30421 30419 30341 30301 30303 30301 30369 30411 30424 30444 30464 30472 30472 30476 30476 30468 30493 30489 30505 30495 30485 30452 30442 30432 30422 
29955 29932 29938 29938 29934 29930 29955 29946 29924 29934 29948 29932 29924 29934 29932 29938 29948 29924 29928 29930 29936 29934 29928 29936 29926 29932 29934 29930 29915 29938 29938 29921 29921 29930 29919 29911 29928 29928 29919 29919 29926 29924 29926 29936 29924 29928 29919 29921 29944 29917 29919 29924 29928 29921 29926 29938 29919 29936 29938 29928 29921 29921 29934 29917 29926 29915 29926 29940 29928 29909 29926 29934 29942 29924 29946 30012 30041 30117 30218 30257 
30291 30277 30283 30224 30200 30198 30208 30259 30293 30317 30339 30345 30367 30371 30383 30381 30393 30413 30419 30454 30454 30462 30476 30499 30478 30464 30428 30383 30329 30297 30287 30297 30313 30393 30525 30584 30470 30377 30323 30311 30325 30389 30578 30630 30628 30582 30480 30411 30375 30349 30331 30325 30345 30343 30357 30355 30349 30275 30279 30323 30369 30417 30430 30442 30466 30470 30507 30501 30474 30480 30468 30468 30472 30466 30462 30454 30415 30417 30422 30422 
29953 29967 29942 29932 29921 29940 29932 29957 29936 29940 29924 29919 29948 29934 29938 29944 29940 29907 29932 29928 29924 29932 29932 29938 29942 29932 29911 29919 29938 29926 29924 29930 29919 29930 29928 29913 29932 29921 29913 29915 29924 29930 29924 29911 29928 29928 29913 29917 29936 29934 29924 29932 29921 29944 29946 29944 29915 29932 29926 29928 29932 29936 29928 29934 29938 29919 29932 29932 29928 29917 29921 29932 29930 29930 29948 30019 30066 30176 30249 30285 
30289 30255 30204 30204 30198 30196 30218 30259 30299 30329 30361 30393 30401 30417 30436 30450 30456 30458 30478 30491 30499 30499 30501 30521 30529 30541 30537 30523 30493 30422 30353 30335 30317 30353 30440 30570 30519 30407 30353 30303 30317 30357 30539 30617 30607 30595 30497 30432 30373 30343 30327 30321 30323 30343 30333 30325 30273 30261 30281 30347 30401 30436 30452 30466 30491 30499 30495 30501 30480 30466 30454 30436 30448 30426 30413 30415 30403 30409 30387 30409 
29961 29944 29953 29921 29915 29936 29942 29930 29946 29938 29928 29919 29930 29924 29928 29930 29948 29903 29917 29913 29936 29934 29953 29926 29930 29936 29934 29921 29921 29915 29924 29926 29928 29924 29921 29928 29942 29917 29903 29911 29932 29915 29928 29942 29940 29930 29915 29930 29915 29932 29924 29934 29921 29926 29928 29942 29924 29921 29940 29921 29924 29926 29917 29924 29915 29913 29928 29938 29924 29919 29921 29928 29940 29951 29953 30037 30147 30245 30265 30259 
30222 30194 30206 30212 30224 30222 30231 30253 30267 30289 30315 30335 30371 30383 30405 30432 30424 30442 30454 30466 30462 30487 30505 30519 30519 30535 30552 30562 30568 30560 30515 30434 30383 30349 30401 30507 30531 30440 30353 30313 30311 30337 30482 30611 30595 30580 30515 30446 30391 30363 30333 30323 30339 30321 30307 30275 30263 30275 30297 30381 30442 30470 30493 30505 30517 30505 30487 30466 30446 30424 30411 30422 30430 30397 30403 30409 30385 30399 30393 30383 
29971 29946 29951 29934 29915 29961 29955 29934 29938 29938 29924 29919 29932 29921 29928 29930 29926 29907 29915 29921 29926 29948 29926 29926 29921 29926 29921 29928 29924 29913 29921 29936 29917 29919 29915 29907 29940 29924 29924 29919 29913 29917 29930 29938 29919 29919 29915 29938 29928 29942 29924 29928 29919 29940 29909 29913 29924 29917 29944 29926 29944 29934 29919 29928 29921 29926 29921 29932 29928 29930 29930 29930 29936 29944 29977 30103 30210 30239 30222 30200 
30206 30214 30229 30226 30257 30253 30249 30249 30265 30277 30283 30301 30303 30303 30301 30323 30329 30329 30331 30343 30361 30359 30387 30417 30422 30456 30472 30505 30541 30543 30523 30527 30456 30389 30383 30411 30446 30397 30331 30289 30311 30323 30407 30531 30547 30570 30531 30460 30403 30373 30343 30341 30329 30301 30291 30261 30237 30255 30327 30419 30476 30511 30519 30509 30515 30495 30478 30440 30426 30417 30422 30419 30393 30395 30395 30399 30381 30383 30375 30389 
29973 29961 29957 29921 29917 29953 29955 29967 29940 29934 29944 29940 29928 29938 29917 29942 29942 29926 29951 29919 29930 29934 29930 29938 29932 29936 29934 29924 29921 29928 29926 29940 29934 29915 29928 29930 29915 29905 29911 29928 29917 29919 29934 29932 29919 29924 29942 29938 29928 29932 29936 29926 29942 29936 29930 29926 29942 29928 29951 29913 29915 29932 29928 29934 29930 29924 29921 29934 29936 29930 29930 29930 29959 29948 30014 30166 30198 30202 30196 30216 
30231 30267 30259 30267 30279 30285 30277 30279 30297 30299 30273 30277 30293 30289 30301 30297 30301 30297 30303 30299 30305 30299 30311 30313 30321 30317 30333 30341 30361 30403 30389 30417 30422 30351 30307 30265 30287 30281 30291 30289 30311 30325 30339 30383 30401 30432 30468 30462 30428 30379 30349 30331 30327 30279 30263 30237 30267 30279 30333 30464 30503 30529 30511 30482 30499 30464 30432 30421 30411 30403 30397 30399 30393 30403 30381 30377 30379 30375 30375 30375 
29957 29961 29948 29932 29946 29944 29948 29946 29946 29938 29932 29948 29932 29936 29936 29930 29930 29926 29938 29944 29938 29951 29936 29946 29915 29924 29928 29919 29934 29934 29917 29913 29919 29926 29907 29919 29932 29921 29917 29926 29921 29915 29928 29944 29928 29934 29913 29940 29926 29940 29932 29940 29919 29932 29913 29919 29913 29921 29924 29913 29911 29938 29924 29936 29928 29913 29924 29932 29928 29924 29919 29936 29944 29967 30086 30137 30186 30220 30222 30245 
30269 30277 30309 30305 30303 30303 30301 30297 30297 30295 30287 30293 30295 30291 30297 30299 30299 30293 30283 30291 30289 30295 30295 30299 30285 30293 30285 30255 30275 30283 30275 30285 30285 30255 30218 30249 30257 30277 30317 30325 30349 30353 30361 30355 30371 30365 30363 30365 30375 30369 30351 30335 30317 30267 30237 30233 30251 30293 30359 30454 30497 30503 30493 30484 30476 30446 30415 30417 30403 30405 30387 30389 30399 30369 30361 30363 30379 30365 30357 30365 
29953 29940 29946 29926 29932 29926 29942 29946 29936 29926 29928 29936 29936 29936 29934 29930 29942 29934 29919 29919 29936 29942 29938 29936 29926 29928 29934 29936 29934 29930 29926 29928 29924 29930 29907 29917 29932 29932 29913 29924 29921 29926 29915 29926 29926 29932 29934 29924 29921 29926 29926 29924 29932 29915 29909 29940 29921 29907 29936 29924 29907 29915 29913 29915 29907 29930 29919 29928 29928 29930 29926 29942 29953 30031 30137 30172 30204 30226 30251 30277 
30283 30307 30317 30309 30311 30309 30307 30287 30295 30295 30303 30315 30309 30291 30291 30299 30307 30303 30297 30289 30291 30297 30293 30303 30293 30277 30279 30239 30241 30237 30253 30241 30231 30208 30231 30255 30295 30303 30343 30353 30373 30379 30389 30385 30377 30371 30363 30353 30337 30355 30345 30309 30291 30267 30255 30229 30257 30297 30375 30482 30487 30489 30466 30452 30438 30417 30401 30383 30381 30369 30369 30369 30351 30357 30349 30357 30361 30339 30327 30361 
29984 29946 29932 29921 29907 29924 29934 29938 29936 29928 29926 29940 29946 29932 29932 29948 29919 29915 29928 29919 29932 29926 29940 29934 29926 29919 29936 29919 29936 29936 29917 29905 29907 29930 29926 29911 29924 29921 29915 29930 29911 29905 29913 29915 29930 29934 29909 29928 29928 29928 29915 29930 29903 29896 29894 29894 29930 29911 29907 29898 29884 29898 29919 29915 29917 29919 29907 29930 29911 29909 29936 29938 29971 30090 30164 30206 30229 30259 30271 30285 
30303 30321 30331 30323 30317 30301 30293 30295 30295 30299 30315 30329 30317 30305 30301 30313 30311 30315 30315 30307 30319 30297 30305 30309 30299 30269 30247 30247 30241 30255 30226 30214 30206 30216 30249 30287 30307 30357 30377 30387 30407 30409 30415 30411 30393 30379 30365 30361 30351 30345 30325 30309 30269 30265 30241 30235 30257 30295 30363 30491 30489 30480 30448 30422 30409 30395 30379 30379 30363 30357 30343 30335 30335 30331 30315 30323 30341 30311 30321 30319 
29961 29965 29946 29932 29919 29944 29959 29946 29928 29948 29936 29932 29936 29928 29932 29944 29928 29924 29944 29930 29936 29942 29940 29938 29924 29917 29928 29924 29932 29928 29919 29938 29909 29934 29921 29913 29930 29921 29907 29911 29907 29913 29919 29917 29911 29924 29919 29934 29946 29919 29913 29924 29907 29890 29886 29896 29909 29919 29896 29880 29890 29913 29921 29928 29926 29917 29917 29932 29948 29936 29924 29946 30012 30149 30202 30224 30251 30265 30291 30289 
30319 30321 30327 30317 30325 30311 30327 30321 30325 30329 30327 30335 30339 30331 30331 30325 30327 30337 30315 30335 30339 30325 30325 30325 30311 30287 30255 30253 30241 30257 30210 30198 30218 30243 30273 30325 30363 30385 30403 30409 30417 30432 30405 30424 30385 30379 30379 30351 30341 30333 30321 30301 30271 30261 30239 30249 30259 30291 30371 30474 30485 30476 30436 30417 30415 30377 30387 30377 30357 30353 30321 30325 30317 30319 30323 30301 30305 30309 30309 30311 
29971 29948 29944 29919 29921 29919 29955 29934 29928 29932 29946 29930 29932 29934 29917 29934 29928 29928 29924 29934 29938 29940 29930 29948 29921 29946 29940 29942 29936 29936 29919 29940 29928 29934 29913 29921 29911 29907 29928 29915 29901 29921 29928 29905 29919 29921 29909 29921 29926 29913 29913 29919 29907 29896 29882 29892 29905 29907 29905 29894 29873 29905 29919 29917 29915 29936 29924 29942 29936 29940 29936 29957 30074 30184 30218 30251 30273 30277 30295 30311 
30317 30333 30329 30333 30325 30333 30339 30345 30353 30357 30361 30351 30353 30347 30333 30345 30365 30343 30337 30339 30339 30337 30337 30315 30289 30271 30257 30259 30263 30239 30190 30218 30247 30267 30313 30353 30365 30397 30407 30415 30436 30417 30411 30421 30381 30363 30351 30347 30333 30343 30319 30291 30287 30261 30239 30233 30255 30299 30367 30485 30468 30456 30415 30403 30393 30381 30363 30361 30359 30341 30327 30313 30313 30307 30285 30289 30265 30281 30281 30293 
29957 29932 29957 29926 29921 29924 29946 29936 29917 29924 29940 29934 29926 29926 29930 29936 29936 29919 29932 29919 29944 29946 29932 29926 29924 29930 29924 29930 29926 29926 29915 29936 29926 29930 29911 29919 29903 29905 29905 29907 29901 29915 29915 29911 29894 29913 29917 29915 29924 29898 29894 29909 29896 29882 29861 29863 29892 29896 29903 29886 29859 29890 29917 29924 29917 29921 29926 29936 29909 29932 29951 30002 30131 30212 30220 30251 30275 30289 30301 30315 
30319 30341 30343 30347 30361 30363 30373 30371 30383 30393 30397 30389 30381 30377 30379 30369 30367 30349 30347 30353 30343 30339 30311 30313 30267 30263 30265 30289 30255 30184 30202 30212 30269 30299 30345 30375 30375 30393 30411 30422 30448 30426 30413 30409 30393 30355 30351 30335 30337 30319 30315 30277 30277 30251 30253 30231 30259 30295 30357 30466 30482 30446 30419 30387 30393 30379 30375 30347 30347 30345 30323 30311 30309 30295 30287 30277 30263 30269 30267 30271 
29969 29938 29930 29907 29932 29944 29938 29938 29924 29944 29940 29936 29917 29930 29928 29932 29936 29921 29926 29903 29944 29934 29905 29928 29932 29938 29911 29934 29934 29924 29928 29924 29905 29911 29919 29942 29924 29921 29924 29913 29926 29921 29921 29915 29917 29919 29915 29913 29924 29907 29911 29913 29882 29880 29869 29875 29903 29892 29882 29882 29871 29890 29921 29917 29915 29930 29932 29919 29932 29944 29948 30043 30168 30222 30249 30261 30283 30295 30313 30327 
30327 30349 30357 30371 30383 30393 30393 30411 30401 30426 30417 30417 30413 30393 30397 30399 30383 30373 30369 30361 30347 30305 30285 30287 30267 30289 30293 30305 30220 30190 30204 30259 30287 30335 30367 30367 30371 30403 30424 30434 30432 30421 30411 30393 30385 30365 30345 30323 30329 30325 30311 30281 30289 30253 30239 30229 30257 30291 30353 30450 30440 30419 30417 30395 30395 30387 30373 30367 30353 30339 30323 30315 30281 30297 30279 30265 30257 30251 30271 30283 
29948 29934 29932 29903 29921 29936 29938 29948 29934 29924 29934 29942 29915 29934 29921 29934 29944 29917 29928 29913 29934 29942 29915 29946 29930 29921 29924 29921 29942 29942 29926 29924 29936 29913 29907 29926 29917 29936 29926 29921 29928 29928 29911 29928 29901 29921 29903 29921 29911 29907 29915 29911 29877 29886 29869 29892 29892 29894 29903 29857 29863 29894 29917 29915 29928 29930 29934 29934 29938 29955 29973 30090 30192 30212 30243 30251 30245 30243 30259 30261 
30269 30285 30275 30303 30311 30327 30337 30353 30359 30365 30361 30377 30383 30363 30391 30385 30375 30353 30343 30327 30317 30275 30273 30273 30297 30309 30309 30271 30190 30178 30224 30275 30325 30363 30361 30375 30387 30415 30434 30428 30430 30407 30395 30385 30365 30361 30343 30333 30325 30331 30319 30285 30287 30265 30249 30239 30259 30287 30335 30430 30444 30422 30421 30399 30413 30387 30385 30357 30359 30333 30315 30305 30299 30291 30277 30267 30247 30253 30251 30267 
29940 29932 29930 29928 29940 29942 29938 29946 29934 29951 29944 29940 29938 29921 29932 29940 29930 29921 29932 29932 29951 29953 29919 29936 29928 29938 29940 29919 29930 29934 29936 29938 29932 29921 29919 29938 29932 29919 29919 29913 29924 29917 29930 29917 29917 29917 29924 29905 29919 29913 29896 29913 29888 29880 29886 29875 29880 29896 29880 29888 29861 29892 29924 29919 29928 29936 29951 29969 30002 30033 30084 30147 30178 30202 30212 30210 30222 30222 30245 30257 
30257 30263 30273 30273 30269 30277 30281 30291 30303 30307 30307 30313 30315 30319 30325 30313 30315 30297 30285 30271 30263 30263 30279 30303 30311 30319 30315 30216 30180 30206 30241 30311 30361 30357 30373 30387 30397 30421 30424 30407 30417 30391 30387 30385 30373 30359 30345 30327 30329 30331 30303 30297 30291 30281 30251 30261 30255 30281 30331 30397 30434 30430 30401 30411 30413 30401 30399 30385 30341 30327 30311 30307 30297 30289 30261 30253 30241 30245 30245 30255 
29961 29963 29938 29932 29924 29934 29951 29961 29921 29946 29926 29946 29924 29944 29936 29932 29938 29911 29928 29928 29928 29926 29940 29938 29936 29936 29938 29934 29942 29921 29942 29955 29919 29951 29921 29930 29938 29915 29932 29932 29926 29936 29934 29936 29898 29919 29913 29917 29913 29921 29907 29903 29894 29873 29867 29898 29875 29871 29888 29894 29867 29884 29930 29930 29944 29977 30012 30068 30119 30155 30164 30182 30202 30204 30220 30243 30239 30259 30291 30295 
30309 30305 30281 30301 30297 30295 30303 30307 30317 30307 30303 30299 30315 30333 30333 30343 30333 30317 30291 30253 30265 30273 30289 30325 30325 30325 30257 30170 30182 30214 30253 30323 30363 30361 30377 30391 30401 30430 30426 30399 30399 30389 30381 30399 30369 30367 30345 30345 30329 30329 30303 30289 30283 30293 30255 30245 30259 30277 30333 30397 30430 30424 30399 30405 30417 30401 30407 30367 30343 30321 30311 30311 30279 30283 30265 30235 30229 30239 30226 30239 
29946 29938 29940 29944 29934 29948 29957 29946 29924 29944 29926 29928 29921 29940 29932 29955 29924 29938 29932 29915 29940 29959 29919 29938 29932 29930 29921 29928 29936 29948 29932 29938 29930 29930 29924 29948 29928 29936 29921 29924 29921 29928 29936 29930 29919 29915 29909 29919 29926 29907 29877 29911 29888 29880 29865 29882 29896 29903 29888 29901 29871 29915 29934 29971 30029 30070 30131 30155 30164 30174 30182 30192 30218 30247 30251 30279 30313 30327 30341 30345 
30337 30355 30341 30331 30335 30329 30317 30317 30299 30295 30295 30315 30331 30323 30339 30331 30295 30255 30237 30263 30271 30293 30315 30335 30337 30307 30208 30168 30192 30224 30283 30355 30359 30361 30381 30397 30395 30409 30428 30395 30389 30389 30387 30383 30369 30355 30349 30323 30329 30329 30297 30295 30291 30281 30255 30251 30269 30277 30315 30391 30417 30436 30411 30403 30409 30389 30393 30359 30331 30327 30315 30297 30285 30277 30251 30214 30222 30245 30202 30235 
29986 29953 29932 29928 29921 29948 29936 29951 29940 29946 29951 29938 29930 29932 29930 29944 29938 29919 29926 29921 29948 29951 29938 29959 29936 29940 29944 29934 29926 29932 29924 29936 29921 29919 29932 29924 29942 29930 29926 29932 29928 29930 29934 29940 29926 29930 29907 29936 29919 29907 29892 29907 29894 29886 29875 29882 29892 29898 29909 29896 29873 29934 29990 30082 30139 30145 30180 30198 30208 30196 30216 30237 30267 30289 30317 30325 30357 30361 30363 30375 
30369 30371 30355 30361 30353 30325 30315 30305 30295 30289 30293 30299 30313 30303 30321 30303 30261 30261 30257 30269 30291 30285 30307 30331 30341 30273 30182 30184 30200 30241 30309 30341 30373 30365 30373 30395 30413 30413 30417 30385 30377 30379 30391 30385 30363 30363 30325 30339 30329 30325 30315 30289 30291 30285 30263 30259 30275 30283 30317 30363 30424 30440 30409 30403 30399 30403 30381 30363 30345 30339 30299 30283 30285 30267 30255 30208 30214 30216 30216 30212 
29942 29940 29936 29934 29932 29948 29942 29942 29942 29965 29942 29928 29932 29926 29936 29930 29919 29936 29921 29915 29932 29940 29938 29942 29903 29938 29938 29928 29936 29932 29946 29951 29948 29926 29946 29917 29946 29942 29919 29928 29934 29926 29948 29938 29932 29936 29915 29934 29905 29907 29909 29903 29905 29880 29888 29905 29898 29917 29903 29913 29911 29986 30084 30151 30178 30178 30204 30218 30239 30245 30247 30287 30321 30311 30301 30297 30283 30283 30301 30303 
30311 30313 30297 30305 30313 30305 30319 30315 30281 30283 30287 30301 30317 30301 30273 30271 30261 30267 30265 30285 30289 30289 30323 30339 30321 30204 30166 30180 30220 30261 30325 30351 30359 30359 30383 30383 30411 30397 30395 30379 30365 30359 30365 30389 30343 30347 30325 30311 30335 30321 30307 30295 30295 30297 30261 30261 30279 30279 30311 30345 30387 30419 30397 30403 30391 30397 30383 30357 30337 30297 30291 30287 30263 30249 30222 30222 30204 30208 30188 30206 
29957 29948 29951 29928 29932 29946 29951 29942 29932 29934 29959 29932 29944 29936 29936 29940 29940 29921 29936 29926 29917 29948 29944 29928 29921 29938 29926 29926 29934 29936 29940 29946 29926 29946 29940 29942 29940 29928 29930 29940 29924 29921 29942 29930 29921 29921 29905 29909 29917 29911 29919 29898 29903 29884 29894 29903 29903 29924 29907 29898 29963 30084 30151 30182 30218 30233 30257 30281 30283 30303 30317 30321 30307 30263 30255 30259 30267 30287 30277 30295 
30287 30291 30299 30297 30301 30313 30329 30301 30261 30251 30285 30297 30295 30259 30229 30255 30269 30269 30297 30297 30323 30309 30323 30331 30263 30180 30168 30190 30243 30287 30335 30361 30377 30375 30379 30393 30385 30393 30387 30375 30373 30373 30369 30371 30343 30335 30329 30329 30319 30341 30309 30315 30295 30287 30271 30257 30275 30281 30307 30345 30385 30411 30387 30397 30393 30377 30371 30375 30321 30315 30287 30283 30257 30237 30212 30194 30192 30192 30190 30204 
29942 29934 29953 29948 29915 29940 29944 29928 29942 29942 29946 29957 29938 29926 29930 29957 29928 29955 29921 29915 29938 29936 29938 29930 29930 29938 29932 29913 29934 29919 29936 29928 29932 29909 29940 29919 29930 29940 29942 29934 29932 29921 29946 29905 29913 29926 29909 29913 29917 29907 29905 29909 29909 29884 29898 29884 29901 29924 29919 29934 30027 30125 30176 30202 30241 30263 30289 30311 30307 30323 30321 30291 30247 30255 30269 30281 30285 30273 30277 30265 
30293 30283 30293 30319 30323 30343 30331 30263 30251 30261 30265 30255 30243 30218 30237 30263 30257 30281 30285 30283 30305 30305 30307 30303 30212 30149 30178 30186 30222 30289 30341 30369 30359 30363 30361 30377 30367 30379 30363 30369 30375 30363 30355 30365 30333 30329 30325 30325 30307 30317 30309 30309 30319 30295 30273 30265 30285 30285 30291 30337 30341 30379 30397 30385 30383 30355 30357 30343 30311 30291 30277 30275 30245 30218 30196 30182 30182 30180 30178 30182 
29975 29953 29942 29928 29926 29930 29940 29953 29928 29944 29938 29934 29930 29926 29932 29948 29951 29944 29928 29913 29919 29928 29921 29930 29940 29934 29915 29942 29934 29919 29934 29932 29928 29924 29928 29926 29938 29930 29921 29930 29936 29946 29930 29932 29907 29932 29915 29919 29924 29909 29909 29896 29907 29894 29909 29926 29919 29919 29913 29973 30092 30155 30196 30239 30261 30245 30279 30283 30281 30275 30271 30259 30255 30283 30295 30263 30273 30257 30279 30301 
30293 30287 30293 30345 30349 30361 30303 30255 30231 30239 30229 30224 30220 30233 30245 30257 30267 30275 30271 30281 30303 30305 30317 30289 30166 30151 30178 30196 30233 30299 30343 30363 30383 30357 30367 30377 30373 30357 30365 30371 30367 30339 30355 30357 30339 30333 30317 30331 30319 30337 30321 30305 30309 30297 30287 30281 30271 30287 30283 30309 30347 30373 30365 30375 30381 30355 30347 30335 30305 30281 30265 30269 30237 30222 30200 30180 30178 30164 30166 30159 
29961 29930 29928 29940 29932 29924 29942 29948 29948 29938 29938 29936 29938 29938 29921 29924 29936 29926 29928 29903 29917 29940 29934 29932 29946 29926 29913 29938 29928 29924 29909 29919 29936 29921 29911 29940 29938 29915 29921 29926 29934 29926 29930 29928 29909 29921 29915 29913 29932 29905 29907 29901 29903 29909 29917 29915 29917 29924 29953 30000 30101 30143 30180 30194 30222 30216 30239 30245 30245 30247 30243 30255 30291 30291 30259 30255 30275 30287 30305 30299 
30293 30313 30327 30347 30379 30343 30265 30226 30222 30224 30212 30212 30231 30245 30251 30259 30271 30271 30285 30295 30301 30285 30285 30233 30161 30145 30161 30202 30222 30305 30347 30363 30369 30361 30367 30357 30349 30367 30373 30359 30351 30331 30353 30357 30329 30343 30323 30315 30321 30319 30313 30303 30311 30293 30289 30277 30277 30279 30287 30297 30305 30365 30367 30349 30359 30353 30343 30325 30301 30273 30243 30245 30235 30226 30194 30178 30174 30182 30176 30170 
29957 29946 29961 29938 29930 29944 29961 29957 29932 29953 29940 29942 29948 29948 29928 29940 29934 29942 29932 29928 29915 29936 29946 29932 29936 29924 29944 29934 29932 29930 29924 29924 29928 29921 29932 29926 29926 29936 29928 29924 29932 29921 29932 29934 29917 29936 29911 29919 29921 29909 29909 29903 29915 29921 29913 29932 29915 29919 29955 30056 30121 30164 30180 30188 30206 30239 30261 30273 30251 30259 30255 30295 30295 30251 30257 30279 30301 30313 30305 30299 
30309 30333 30349 30381 30381 30315 30255 30233 30216 30220 30212 30216 30235 30216 30249 30275 30263 30283 30293 30301 30289 30279 30261 30198 30164 30151 30170 30196 30235 30311 30327 30353 30365 30369 30367 30367 30355 30359 30359 30361 30363 30349 30347 30355 30351 30333 30345 30329 30333 30333 30305 30313 30315 30305 30301 30269 30289 30285 30283 30279 30287 30325 30365 30339 30351 30341 30331 30307 30281 30277 30253 30261 30229 30214 30200 30178 30178 30168 30164 30176 
29953 29936 29948 29926 29915 29919 29959 29953 29955 29942 29936 29934 29917 29953 29932 29940 29940 29938 29924 29913 29938 29951 29946 29926 29938 29934 29909 29930 29938 29928 29913 29932 29917 29938 29921 29924 29921 29928 29928 29938 29917 29946 29930 29930 29919 29919 29917 29921 29921 29909 29909 29911 29917 29919 29928 29903 29909 29911 29975 30084 30137 30170 30192 30218 30243 30263 30271 30249 30269 30259 30275 30285 30259 30251 30267 30293 30295 30287 30289 30303 
30337 30361 30383 30401 30355 30293 30259 30233 30224 30216 30231 30235 30233 30261 30271 30277 30285 30275 30279 30281 30283 30273 30220 30164 30145 30164 30176 30200 30237 30311 30349 30329 30359 30363 30349 30355 30361 30363 30355 30355 30359 30365 30341 30367 30337 30337 30325 30327 30323 30325 30323 30289 30285 30287 30281 30283 30281 30291 30291 30283 30271 30297 30339 30339 30325 30315 30309 30299 30283 30271 30237 30245 30214 30233 30188 30164 30174 30164 30174 30178 
29959 29944 29944 29934 29919 29934 29948 29942 29930 29926 29953 29915 29936 29944 29946 29938 29944 29942 29919 29928 29934 29948 29919 29944 29930 29921 29909 29926 29913 29919 29926 29921 29913 29913 29924 29913 29928 29921 29944 29926 29924 29924 29938 29940 29932 29909 29905 29936 29921 29930 29907 29898 29919 29905 29917 29913 29907 29932 30004 30092 30157 30176 30214 30243 30277 30281 30251 30277 30253 30239 30253 30239 30245 30269 30303 30297 30289 30287 30299 30327 
30367 30389 30401 30421 30337 30281 30237 30245 30218 30218 30229 30222 30239 30259 30277 30281 30297 30277 30273 30277 30271 30247 30166 30155 30153 30147 30166 30202 30239 30321 30349 30361 30365 30359 30373 30367 30351 30343 30365 30361 30361 30351 30357 30367 30325 30351 30341 30313 30321 30325 30319 30279 30297 30299 30297 30281 30301 30291 30299 30301 30273 30277 30297 30317 30323 30307 30305 30267 30269 30259 30237 30249 30212 30214 30194 30190 30186 30172 30166 30176 
29971 29938 29953 29940 29942 29944 29961 29940 29938 29951 29942 29951 29917 29936 29930 29959 29946 29940 29946 29934 29940 29934 29936 29936 29919 29924 29942 29932 29924 29940 29944 29936 29936 29924 29909 29934 29907 29940 29936 29924 29932 29921 29934 29932 29932 29926 29932 29919 29942 29917 29903 29911 29909 29915 29921 29913 29926 29938 30041 30131 30176 30216 30241 30285 30293 30253 30255 30291 30249 30224 30231 30243 30271 30299 30297 30281 30287 30295 30315 30363 
30377 30403 30419 30389 30307 30269 30233 30235 30222 30222 30235 30249 30269 30253 30279 30287 30289 30277 30267 30277 30265 30206 30155 30153 30145 30153 30174 30200 30233 30317 30337 30361 30365 30351 30353 30373 30347 30355 30365 30375 30381 30361 30357 30379 30357 30347 30339 30333 30331 30349 30325 30317 30309 30323 30305 30303 30293 30295 30297 30295 30277 30293 30287 30311 30317 30311 30297 30293 30263 30245 30220 30239 30194 30216 30184 30176 30184 30182 30190 30188 


