P2
80 60
31777
29915 29907 29890 29898 29919 29896 29892 29903 29886 29882 29892 29896 29882 29873 29877 29882 29888 29888 29871 29880 29886 29890 29896 29884 29875 29861 29859 29857 29867 29865 29863 29873 29890 29873 29903 29890 29869 29854 29886 29869 29865 29873 29867 29888 29892 29861 29884 29884 29888 29884 29888 29894 29898 29892 29882 29871 29896 29892 29911 29898 29915 29901 29901 29903 29886 29917 29896 29903 29903 29886 29886 29888 29875 29877 29871 29875 29865 29884 29898 29892 
29875 29863 29886 29873 29886 29901 29934 29965 29992 30002 30047 30084 30147 30381 30564 30640 30716 30783 30890 30994 31043 31009 30971 30924 30913 30915 30922 30894 30888 30856 30850 30835 30823 30817 30825 30814 30854 30838 30876 30861 30876 30876 30871 30836 30815 30810 30806 30750 30714 30708 30721 30737 30760 30791 30821 30806 30754 30632 30361 29948 29911 29882 29836 29838 29838 29840 29819 29848 29846 29848 29831 29844 29819 29842 29848 29848 29829 29848 29836 29859 
29919 29888 29890 29898 29907 29903 29903 29901 29886 29884 29896 29898 29907 29867 29892 29907 29894 29886 29892 29894 29884 29880 29877 29863 29877 29886 29857 29865 29877 29869 29859 29854 29877 29886 29890 29892 29880 29875 29886 29863 29884 29880 29880 29875 29857 29869 29863 29867 29867 29880 29869 29888 29865 29880 29888 29877 29901 29903 29907 29888 29886 29907 29898 29884 29877 29882 29886 29894 29903 29898 29875 29884 29882 29890 29886 29907 29886 29880 29888 29894 
29882 29898 29875 29890 29894 29936 29948 30004 30033 30054 30099 30127 30151 30275 30507 30605 30673 30750 30833 30932 30979 30970 30937 30920 30913 30922 30913 30899 30875 30892 30852 30867 30848 30825 30825 30838 30850 30859 30884 30867 30886 30873 30844 30819 30787 30781 30762 30729 30714 30719 30749 30739 30764 30789 30810 30810 30762 30652 30395 29944 29896 29873 29842 29840 29842 29838 29838 29861 29844 29834 29836 29836 29836 29844 29834 29852 29850 29863 29827 29825 
29921 29892 29905 29894 29905 29892 29877 29905 29907 29882 29896 29884 29894 29877 29894 29880 29892 29880 29880 29894 29892 29873 29890 29880 29894 29888 29871 29886 29863 29861 29848 29852 29869 29877 29911 29901 29896 29892 29857 29884 29869 29869 29875 29871 29873 29863 29869 29873 29873 29865 29886 29882 29890 29873 29865 29884 29886 29886 29877 29884 29898 29880 29898 29886 29875 29898 29892 29898 29884 29894 29877 29898 29901 29888 29873 29907 29892 29896 29901 29903 
29894 29894 29890 29888 29911 29932 29986 30035 30074 30088 30119 30147 30164 30218 30434 30533 30597 30654 30729 30827 30922 30918 30897 30905 30897 30924 30903 30894 30876 30886 30861 30873 30857 30829 30808 30827 30848 30848 30873 30863 30867 30878 30842 30821 30787 30749 30741 30725 30731 30731 30766 30766 30787 30815 30810 30798 30754 30671 30397 29953 29884 29863 29834 29836 29840 29821 29842 29844 29846 29840 29821 29836 29821 29846 29827 29831 29848 29867 29850 29836 
29932 29880 29890 29898 29896 29886 29907 29884 29877 29871 29865 29867 29865 29884 29861 29873 29880 29869 29886 29869 29886 29873 29875 29867 29857 29867 29877 29852 29871 29844 29867 29861 29861 29875 29905 29890 29882 29880 29882 29886 29880 29871 29873 29875 29877 29875 29869 29865 29859 29867 29863 29869 29871 29867 29869 29869 29884 29888 29877 29877 29886 29886 29884 29875 29890 29890 29865 29880 29892 29884 29882 29888 29863 29875 29882 29898 29894 29901 29896 29896 
29905 29871 29877 29892 29924 29955 30000 30096 30125 30151 30178 30164 30170 30176 30261 30413 30503 30548 30607 30712 30850 30880 30886 30890 30888 30907 30905 30905 30903 30896 30859 30852 30848 30833 30819 30796 30829 30848 30867 30871 30871 30857 30823 30823 30774 30745 30747 30723 30756 30766 30798 30812 30815 30812 30804 30798 30768 30654 30395 29944 29880 29846 29831 29836 29831 29834 29842 29865 29842 29838 29834 29834 29842 29823 29831 29836 29827 29859 29834 29821 
29940 29894 29892 29909 29894 29888 29884 29882 29882 29880 29888 29861 29857 29857 29865 29871 29880 29877 29875 29873 29861 29869 29877 29880 29886 29890 29859 29880 29867 29873 29869 29859 29877 29871 29863 29875 29888 29888 29873 29880 29884 29873 29890 29871 29888 29873 29890 29880 29886 29873 29892 29882 29896 29886 29873 29886 29882 29892 29880 29871 29867 29877 29886 29869 29875 29884 29890 29886 29871 29871 29867 29894 29867 29888 29880 29896 29877 29882 29892 29892 
29901 29898 29903 29888 29928 29979 30031 30127 30182 30206 30222 30218 30159 30115 30078 30157 30325 30379 30466 30638 30833 30856 30882 30894 30899 30924 30928 30907 30888 30865 30852 30865 30836 30814 30802 30793 30814 30846 30854 30863 30871 30861 30831 30812 30775 30754 30783 30768 30779 30775 30791 30821 30836 30856 30815 30795 30737 30669 30415 29951 29877 29861 29840 29825 29829 29829 29825 29834 29836 29838 29831 29838 29844 29825 29831 29821 29834 29850 29836 29827 
29936 29898 29903 29924 29924 29888 29875 29873 29877 29896 29875 29871 29882 29875 29859 29882 29863 29894 29890 29882 29886 29890 29886 29886 29884 29877 29880 29869 29861 29873 29865 29869 29888 29877 29880 29877 29888 29888 29873 29882 29873 29890 29890 29884 29877 29880 29884 29869 29875 29873 29898 29888 29894 29890 29882 29892 29901 29917 29903 29903 29884 29903 29915 29909 29882 29892 29884 29882 29892 29901 29877 29896 29871 29890 29888 29880 29888 29886 29894 29905 
29896 29894 29882 29886 29928 29979 30047 30176 30231 30275 30285 30222 30149 30068 30047 30027 30056 30099 30186 30426 30775 30848 30871 30892 30884 30920 30934 30911 30915 30863 30857 30854 30838 30833 30817 30796 30798 30825 30859 30859 30890 30848 30817 30804 30779 30789 30814 30791 30789 30804 30808 30808 30838 30846 30827 30806 30766 30657 30403 29963 29896 29867 29848 29844 29848 29819 29831 29827 29827 29834 29840 29848 29848 29836 29844 29836 29840 29861 29842 29836 
29930 29898 29880 29903 29907 29886 29892 29892 29871 29877 29886 29873 29873 29869 29863 29871 29877 29894 29880 29880 29867 29882 29892 29884 29892 29875 29890 29882 29892 29877 29861 29875 29861 29873 29857 29880 29863 29850 29871 29873 29875 29877 29880 29894 29865 29873 29871 29886 29884 29877 29888 29877 29886 29880 29892 29884 29909 29892 29894 29890 29907 29894 29917 29905 29905 29909 29896 29898 29898 29901 29884 29892 29877 29901 29871 29861 29886 29884 29894 29898 
29873 29880 29892 29890 29942 29994 30078 30216 30291 30327 30317 30216 30127 30058 30021 29975 29988 29981 30027 30174 30584 30804 30846 30875 30882 30907 30939 30922 30901 30875 30848 30838 30838 30827 30804 30812 30806 30821 30856 30863 30865 30854 30800 30808 30802 30812 30800 30802 30812 30812 30819 30825 30861 30857 30865 30840 30798 30675 30399 29967 29892 29861 29854 29850 29819 29836 29834 29852 29827 29834 29840 29840 29848 29848 29831 29838 29852 29857 29827 29838 
29934 29890 29903 29892 29901 29894 29884 29880 29871 29877 29871 29875 29873 29861 29875 29875 29873 29884 29892 29890 29888 29894 29848 29873 29901 29886 29888 29882 29877 29877 29857 29861 29871 29880 29890 29905 29867 29859 29861 29880 29886 29869 29877 29882 29882 29871 29869 29873 29886 29857 29880 29882 29903 29886 29886 29882 29890 29890 29894 29888 29907 29901 29905 29915 29903 29903 29888 29886 29911 29898 29886 29917 29896 29888 29901 29894 29873 29892 29913 29911 
29896 29903 29877 29884 29936 30012 30092 30245 30333 30379 30345 30245 30121 30017 29963 29959 29938 29930 29961 30017 30291 30727 30817 30859 30876 30878 30920 30934 30928 30875 30852 30859 30863 30835 30815 30815 30795 30833 30844 30852 30869 30854 30827 30804 30812 30815 30819 30814 30798 30810 30800 30789 30829 30825 30831 30850 30793 30694 30377 29961 29896 29861 29848 29844 29840 29829 29842 29836 29838 29842 29834 29829 29842 29859 29834 29842 29854 29846 29838 29836 
29942 29892 29896 29909 29894 29882 29880 29884 29882 29882 29896 29875 29886 29850 29869 29867 29871 29884 29884 29863 29867 29875 29869 29869 29873 29880 29877 29871 29867 29886 29867 29850 29869 29880 29890 29907 29861 29873 29861 29875 29886 29875 29888 29905 29892 29894 29890 29882 29880 29875 29880 29890 29892 29892 29884 29886 29882 29888 29901 29892 29888 29911 29905 29898 29911 29901 29907 29903 29903 29892 29894 29903 29882 29890 29898 29892 29880 29903 29903 29896 
29901 29909 29898 29903 29944 30008 30117 30275 30383 30405 30345 30222 30115 30017 29965 29926 29917 29915 29917 29965 30064 30505 30789 30838 30854 30875 30875 30905 30922 30880 30857 30873 30863 30846 30840 30802 30814 30829 30852 30842 30867 30857 30846 30821 30808 30815 30804 30814 30781 30779 30754 30747 30789 30796 30825 30838 30789 30673 30377 29944 29880 29842 29836 29823 29840 29819 29838 29838 29834 29844 29836 29838 29840 29844 29846 29829 29834 29859 29857 29838 
29924 29901 29888 29903 29896 29882 29886 29880 29875 29882 29903 29875 29871 29861 29871 29873 29869 29850 29873 29863 29877 29867 29863 29857 29886 29877 29886 29875 29882 29863 29861 29869 29884 29873 29869 29875 29869 29867 29861 29873 29871 29898 29875 29888 29877 29880 29884 29890 29884 29867 29894 29896 29894 29886 29884 29896 29896 29894 29892 29903 29892 29907 29921 29919 29884 29915 29907 29907 29911 29901 29886 29896 29886 29898 29892 29880 29896 29896 29915 29894 
29907 29907 29892 29911 29930 30008 30123 30291 30401 30430 30367 30239 30119 30047 29975 29915 29911 29907 29905 29913 29979 30273 30721 30823 30859 30867 30897 30876 30896 30890 30863 30863 30857 30863 30848 30846 30831 30842 30852 30850 30857 30876 30857 30821 30806 30779 30781 30787 30741 30749 30752 30752 30774 30795 30835 30827 30772 30654 30285 29934 29886 29861 29838 29842 29827 29834 29840 29844 29834 29842 29836 29840 29838 29850 29834 29842 29850 29859 29861 29846 
29926 29890 29882 29913 29907 29882 29871 29877 29873 29886 29871 29873 29865 29846 29882 29869 29861 29863 29882 29871 29873 29886 29873 29890 29886 29873 29882 29861 29871 29888 29877 29869 29880 29890 29875 29869 29867 29846 29867 29873 29867 29869 29882 29880 29886 29884 29873 29863 29880 29871 29894 29896 29903 29894 29886 29898 29898 29901 29917 29907 29930 29928 29924 29907 29909 29917 29915 29896 29903 29905 29898 29917 29884 29890 29890 29884 29892 29896 29901 29903 
29886 29907 29890 29896 29921 30008 30127 30291 30422 30442 30369 30271 30155 30058 29988 29928 29913 29882 29871 29903 29944 30109 30594 30814 30861 30863 30899 30892 30901 30863 30863 30863 30863 30869 30876 30850 30852 30833 30827 30856 30873 30859 30871 30838 30810 30804 30793 30774 30754 30760 30760 30764 30779 30817 30838 30806 30750 30609 30182 29877 29877 29836 29846 29836 29831 29823 29840 29840 29842 29848 29842 29842 29834 29844 29836 29852 29850 29854 29842 29844 
29926 29892 29901 29901 29901 29880 29869 29884 29877 29877 29882 29873 29880 29857 29865 29877 29884 29865 29875 29863 29869 29875 29880 29877 29894 29882 29877 29884 29861 29861 29877 29869 29888 29896 29886 29890 29867 29867 29859 29863 29884 29869 29873 29873 29873 29882 29877 29865 29854 29875 29888 29886 29907 29896 29894 29901 29905 29913 29915 29909 29924 29928 29934 29926 29926 29940 29932 29919 29921 29917 29911 29926 29907 29915 29877 29898 29890 29903 29907 29882 
29884 29901 29892 29890 29917 30004 30129 30281 30393 30442 30389 30285 30149 30043 29967 29907 29892 29865 29884 29880 29917 29998 30383 30798 30873 30901 30909 30907 30886 30876 30865 30871 30876 30882 30880 30865 30863 30842 30859 30869 30878 30875 30859 30857 30850 30819 30793 30800 30783 30783 30775 30768 30783 30833 30842 30802 30712 30513 30054 29884 29873 29834 29821 29825 29831 29834 29825 29842 29852 29848 29840 29848 29842 29842 29848 29850 29850 29850 29825 29825 
29921 29888 29894 29907 29894 29875 29884 29903 29863 29871 29890 29865 29869 29877 29861 29871 29867 29882 29867 29869 29869 29863 29865 29875 29865 29871 29886 29875 29869 29873 29888 29880 29892 29894 29898 29894 29882 29896 29867 29875 29884 29877 29898 29875 29871 29877 29865 29873 29869 29865 29894 29877 29894 29890 29901 29886 29894 29905 29919 29913 29930 29915 29915 29924 29913 29928 29919 29909 29924 29913 29901 29932 29919 29911 29896 29880 29888 29905 29898 29892 
29877 29901 29875 29896 29965 30039 30151 30273 30407 30456 30413 30289 30164 30027 29957 29877 29871 29842 29867 29867 29880 29967 30190 30687 30863 30894 30939 30907 30903 30863 30861 30861 30882 30863 30878 30871 30859 30861 30873 30861 30886 30869 30863 30857 30842 30844 30838 30812 30796 30795 30775 30781 30796 30821 30825 30789 30661 30357 29951 29867 29848 29842 29825 29823 29838 29819 29815 29840 29838 29840 29842 29857 29840 29844 29842 29844 29846 29848 29838 29854 
29921 29903 29903 29890 29894 29880 29871 29894 29882 29873 29871 29863 29884 29863 29880 29869 29869 29884 29880 29882 29865 29865 29869 29861 29865 29880 29877 29865 29869 29875 29896 29892 29905 29873 29896 29896 29886 29890 29877 29867 29877 29877 29898 29875 29886 29888 29898 29873 29884 29875 29898 29903 29882 29901 29905 29888 29907 29913 29909 29917 29921 29905 29930 29934 29911 29917 29930 29932 29938 29926 29909 29924 29909 29909 29901 29884 29896 29911 29917 29898 
29892 29894 29890 29882 29942 30041 30153 30273 30399 30470 30446 30325 30184 30041 29951 29905 29892 29865 29873 29867 29903 29932 30070 30539 30840 30911 30928 30960 30934 30871 30861 30886 30892 30878 30903 30890 30886 30880 30863 30859 30873 30875 30867 30871 30857 30852 30857 30852 30844 30814 30783 30791 30810 30800 30798 30739 30607 30166 29901 29848 29859 29854 29838 29823 29825 29821 29846 29854 29848 29850 29850 29831 29838 29846 29840 29861 29840 29838 29840 29848 
29934 29886 29890 29890 29892 29861 29854 29867 29877 29867 29871 29882 29896 29863 29859 29865 29857 29875 29861 29857 29869 29873 29886 29867 29888 29871 29882 29884 29875 29875 29873 29877 29875 29869 29892 29890 29871 29869 29865 29880 29867 29865 29875 29863 29875 29865 29865 29880 29877 29886 29888 29898 29896 29894 29898 29884 29913 29907 29917 29907 29924 29930 29928 29932 29934 29919 29932 29905 29926 29917 29917 29915 29911 29905 29892 29896 29896 29907 29903 29903 
29896 29901 29886 29882 29924 29998 30127 30299 30424 30485 30456 30347 30202 30047 29948 29903 29880 29863 29869 29857 29884 29932 30006 30325 30795 30884 30930 30939 30945 30920 30890 30888 30928 30907 30903 30909 30871 30894 30875 30871 30876 30871 30857 30842 30846 30861 30844 30842 30827 30796 30795 30770 30783 30774 30745 30692 30446 29977 29869 29831 29848 29836 29829 29823 29810 29819 29840 29844 29829 29838 29840 29844 29825 29827 29840 29831 29850 29863 29852 29838 
29928 29886 29901 29901 29892 29873 29871 29877 29867 29865 29850 29871 29884 29863 29857 29869 29871 29877 29863 29865 29869 29884 29873 29877 29886 29882 29875 29875 29867 29873 29867 29852 29880 29867 29869 29877 29877 29875 29867 29861 29873 29884 29863 29869 29863 29869 29865 29873 29873 29875 29884 29888 29886 29886 29896 29888 29907 29915 29907 29907 29919 29934 29934 29944 29942 29926 29928 29940 29905 29926 29919 29924 29905 29911 29901 29911 29911 29921 29930 29915 
29884 29901 29892 29886 29903 29971 30107 30261 30426 30497 30491 30381 30216 30076 29977 29898 29873 29873 29880 29877 29896 29903 29963 30168 30690 30892 30911 30936 30937 30922 30876 30878 30903 30920 30930 30903 30873 30888 30882 30888 30876 30867 30863 30857 30859 30867 30829 30831 30808 30785 30785 30777 30779 30752 30716 30623 30243 29921 29863 29844 29842 29829 29819 29825 29825 29815 29823 29848 29838 29840 29846 29846 29840 29838 29852 29825 29840 29852 29846 29854 
29921 29892 29901 29892 29901 29873 29865 29882 29877 29871 29882 29875 29880 29871 29857 29869 29863 29869 29875 29873 29873 29882 29877 29865 29869 29865 29880 29871 29867 29857 29875 29869 29894 29867 29880 29869 29852 29863 29863 29877 29869 29869 29875 29867 29863 29888 29865 29875 29888 29867 29886 29888 29890 29884 29896 29903 29892 29913 29917 29907 29934 29915 29928 29942 29942 29946 29930 29948 29936 29932 29913 29924 29913 29913 29907 29928 29930 29926 29917 29911 
29898 29907 29888 29898 29934 30002 30121 30303 30446 30531 30513 30407 30257 30099 29979 29901 29871 29873 29867 29880 29882 29909 29932 30078 30572 30876 30930 30941 30941 30928 30915 30909 30907 30922 30917 30892 30890 30894 30888 30867 30880 30878 30890 30882 30878 30863 30835 30821 30802 30798 30785 30754 30752 30745 30685 30558 30099 29882 29842 29821 29854 29838 29834 29821 29834 29825 29829 29842 29848 29852 29834 29854 29848 29834 29846 29850 29852 29848 29846 29850 
29917 29859 29880 29901 29877 29871 29867 29869 29875 29861 29854 29859 29857 29863 29838 29840 29861 29859 29875 29852 29873 29871 29898 29873 29871 29869 29865 29863 29852 29850 29873 29854 29873 29873 29873 29863 29857 29877 29861 29861 29884 29859 29875 29867 29861 29859 29861 29865 29882 29865 29890 29882 29884 29884 29886 29892 29896 29909 29911 29915 29905 29932 29926 29930 29930 29934 29948 29936 29924 29934 29932 29932 29915 29909 29913 29921 29924 29907 29915 29896 
29898 29905 29909 29905 29928 30025 30145 30343 30487 30560 30533 30454 30275 30117 29992 29894 29886 29890 29871 29890 29905 29896 29919 30037 30487 30840 30922 30920 30934 30934 30922 30903 30890 30901 30882 30890 30888 30894 30875 30878 30876 30886 30880 30871 30884 30856 30844 30825 30806 30812 30777 30770 30747 30712 30638 30444 29990 29882 29857 29834 29848 29827 29825 29823 29821 29831 29829 29836 29852 29842 29848 29834 29842 29840 29846 29854 29850 29861 29859 29850 
29946 29901 29911 29903 29884 29875 29882 29884 29875 29869 29875 29865 29884 29867 29854 29861 29861 29852 29869 29871 29873 29894 29865 29875 29875 29861 29875 29850 29848 29869 29871 29873 29888 29869 29888 29867 29865 29850 29844 29840 29846 29848 29865 29861 29859 29869 29865 29865 29869 29863 29880 29880 29882 29877 29888 29903 29896 29913 29913 29917 29946 29940 29930 29932 29932 29940 29936 29951 29926 29932 29930 29934 29913 29905 29913 29919 29903 29911 29932 29907 
29898 29907 29901 29913 29938 30027 30172 30373 30529 30586 30578 30484 30329 30143 30006 29917 29888 29865 29884 29901 29915 29926 29969 30056 30485 30840 30928 30932 30932 30934 30917 30903 30909 30896 30892 30878 30888 30899 30899 30888 30894 30907 30907 30907 30892 30854 30846 30836 30814 30806 30785 30760 30737 30702 30554 30210 29919 29875 29852 29854 29838 29840 29842 29842 29844 29844 29834 29827 29852 29852 29844 29844 29848 29844 29850 29867 29846 29873 29869 29840 
29944 29905 29898 29894 29884 29867 29865 29888 29886 29888 29867 29863 29850 29854 29844 29859 29871 29852 29857 29861 29869 29884 29871 29869 29873 29875 29873 29867 29877 29871 29880 29859 29880 29886 29875 29852 29844 29834 29848 29840 29836 29827 29857 29865 29848 29846 29861 29877 29850 29869 29875 29875 29875 29886 29898 29882 29903 29903 29921 29930 29924 29919 29921 29942 29938 29919 29917 29938 29938 29932 29921 29936 29915 29915 29907 29917 29901 29905 29903 29911 
29917 29921 29905 29901 29924 30064 30224 30436 30566 30632 30626 30527 30353 30151 30019 29930 29911 29903 29909 29924 29988 30076 30151 30311 30623 30852 30917 30918 30909 30926 30909 30924 30909 30890 30886 30892 30897 30922 30903 30897 30890 30884 30899 30903 30890 30880 30846 30836 30802 30787 30758 30749 30667 30503 30208 29981 29890 29834 29846 29857 29844 29821 29825 29836 29840 29825 29834 29836 29854 29861 29861 29873 29848 29850 29861 29842 29852 29871 29867 29854 
29932 29890 29880 29892 29888 29873 29867 29875 29865 29875 29865 29848 29865 29844 29854 29859 29850 29850 29859 29861 29854 29867 29880 29857 29863 29861 29884 29859 29867 29869 29865 29859 29865 29863 29846 29861 29840 29846 29831 29842 29827 29829 29842 29852 29850 29842 29842 29867 29861 29844 29865 29873 29871 29875 29877 29896 29901 29913 29892 29913 29924 29915 29928 29932 29934 29928 29942 29921 29934 29938 29938 29934 29921 29903 29898 29915 29917 29907 29913 29913 
29913 29890 29890 29928 29961 30084 30285 30484 30628 30667 30685 30564 30407 30218 30041 29977 29981 30023 30096 30147 30247 30419 30552 30648 30804 30867 30892 30915 30913 30903 30899 30903 30926 30936 30901 30903 30917 30926 30926 30932 30928 30917 30903 30901 30875 30871 30852 30825 30808 30795 30756 30640 30470 30285 30103 29975 29892 29848 29834 29831 29823 29836 29817 29844 29844 29831 29850 29857 29850 29854 29848 29867 29859 29867 29852 29850 29861 29852 29857 29861 
29936 29896 29888 29905 29871 29873 29886 29877 29869 29869 29873 29869 29882 29875 29844 29850 29857 29867 29850 29857 29867 29857 29863 29869 29875 29875 29873 29867 29854 29846 29861 29865 29873 29861 29877 29873 29865 29846 29840 29854 29863 29861 29848 29871 29867 29859 29859 29852 29859 29859 29888 29877 29880 29877 29888 29869 29903 29901 29892 29915 29924 29928 29938 29934 29936 29946 29944 29938 29944 29959 29959 29951 29921 29924 29903 29903 29911 29911 29921 29907 
29909 29917 29894 29953 30004 30153 30347 30550 30683 30737 30735 30646 30456 30291 30204 30222 30263 30263 30319 30369 30403 30517 30679 30768 30884 30892 30903 30894 30896 30894 30909 30911 30924 30934 30937 30928 30939 30934 30924 30937 30936 30934 30939 30911 30901 30890 30861 30859 30848 30793 30762 30619 30527 30450 30329 30155 29988 29884 29850 29838 29846 29831 29840 29850 29854 29850 29873 29859 29869 29880 29873 29871 29880 29886 29875 29861 29869 29873 29871 29854 
29928 29880 29888 29882 29884 29873 29869 29875 29867 29854 29844 29888 29850 29854 29838 29842 29854 29863 29846 29846 29846 29859 29867 29875 29867 29854 29873 29859 29848 29852 29859 29863 29861 29857 29863 29852 29854 29840 29840 29857 29840 29844 29867 29852 29861 29859 29850 29873 29875 29857 29884 29880 29877 29882 29890 29871 29886 29894 29909 29913 29930 29934 29936 29928 29926 29930 29946 29940 29946 29959 29938 29951 29924 29924 29905 29903 29905 29930 29942 29961 
29955 29973 29998 30060 30164 30337 30507 30669 30770 30827 30823 30719 30605 30543 30446 30411 30357 30303 30359 30399 30424 30470 30638 30754 30888 30903 30909 30875 30886 30899 30909 30939 30928 30956 30958 30953 30945 30949 30936 30937 30943 30928 30934 30928 30909 30896 30878 30857 30844 30821 30787 30706 30603 30539 30452 30319 30166 29984 29871 29848 29848 29857 29852 29865 29877 29869 29882 29905 29917 29905 29911 29926 29894 29911 29890 29873 29894 29894 29869 29852 
29915 29875 29890 29888 29894 29880 29869 29871 29873 29869 29875 29861 29850 29840 29850 29861 29852 29859 29857 29846 29850 29854 29848 29842 29844 29850 29861 29838 29840 29842 29840 29852 29854 29846 29852 29836 29836 29831 29838 29850 29848 29850 29865 29852 29846 29852 29859 29846 29867 29850 29884 29869 29882 29880 29880 29877 29894 29919 29901 29921 29924 29913 29936 29934 29936 29940 29919 29936 29940 29934 29930 29955 29909 29928 29924 29942 29981 30086 30151 30200 
30202 30235 30287 30393 30509 30646 30814 30971 31041 31105 31121 31056 30926 30747 30574 30450 30391 30345 30363 30409 30444 30466 30511 30679 30892 30896 30888 30888 30873 30890 30894 30899 30920 30939 30970 30964 30956 30962 30947 30941 30943 30905 30905 30886 30865 30865 30848 30833 30833 30827 30821 30789 30698 30603 30537 30413 30325 30172 29981 29894 29894 29869 29877 29894 29928 29942 30008 30027 30072 30078 30115 30094 30076 30039 30039 30012 29971 29934 29907 29896 
29932 29894 29880 29888 29877 29873 29880 29875 29861 29869 29857 29865 29842 29840 29857 29854 29844 29831 29840 29857 29840 29857 29852 29834 29852 29838 29852 29846 29842 29834 29850 29831 29865 29852 29836 29846 29831 29834 29846 29842 29838 29834 29836 29850 29840 29838 29854 29846 29859 29840 29867 29877 29875 29877 29871 29886 29898 29911 29903 29915 29903 29917 29932 29932 29917 29940 29942 29957 29953 29955 29942 29932 29944 29944 29998 30103 30202 30283 30323 30323 
30327 30331 30387 30501 30652 30835 30983 31146 31235 31270 31295 31218 31067 30865 30640 30507 30421 30381 30409 30428 30458 30487 30485 30525 30760 30905 30884 30869 30861 30875 30869 30892 30901 30922 30939 30947 30936 30932 30915 30920 30917 30882 30876 30842 30840 30838 30838 30833 30840 30840 30848 30854 30779 30650 30576 30468 30381 30291 30174 30105 30107 30047 30025 30039 30101 30204 30281 30279 30289 30271 30279 30275 30245 30231 30214 30174 30139 30094 30050 29957 
29934 29882 29905 29888 29896 29869 29863 29854 29884 29867 29846 29852 29854 29848 29842 29848 29846 29865 29838 29852 29850 29846 29854 29846 29857 29834 29842 29834 29846 29829 29852 29852 29861 29836 29829 29834 29823 29834 29844 29840 29831 29836 29838 29850 29831 29844 29838 29844 29854 29840 29877 29859 29871 29859 29859 29873 29892 29907 29898 29901 29913 29928 29942 29930 29924 29911 29934 29938 29948 29942 29946 29963 29992 30086 30202 30261 30305 30381 30413 30405 
30363 30379 30393 30521 30696 30918 31101 31242 31352 31383 31370 31261 31097 30930 30712 30554 30478 30401 30458 30474 30487 30523 30513 30507 30590 30727 30819 30852 30854 30859 30873 30882 30892 30905 30909 30911 30917 30913 30905 30897 30899 30892 30873 30848 30846 30836 30861 30844 30863 30856 30882 30897 30802 30667 30592 30499 30424 30377 30327 30365 30415 30373 30331 30341 30381 30436 30460 30391 30365 30337 30319 30319 30315 30301 30287 30263 30247 30226 30149 30074 
29915 29892 29880 29890 29894 29875 29861 29877 29865 29863 29850 29848 29859 29840 29834 29846 29842 29825 29850 29846 29840 29852 29840 29844 29850 29838 29844 29827 29846 29842 29848 29836 29861 29848 29840 29821 29825 29834 29848 29831 29834 29838 29819 29836 29846 29834 29829 29836 29859 29836 29836 29854 29863 29867 29867 29877 29880 29890 29877 29886 29913 29915 29915 29930 29936 29936 29946 29930 29934 29942 29979 30060 30157 30253 30273 30309 30371 30419 30462 30450 
30397 30377 30389 30464 30688 30928 31170 31337 31425 31470 31439 31293 31093 30903 30731 30582 30476 30430 30452 30478 30507 30523 30525 30527 30539 30580 30657 30733 30800 30833 30852 30871 30878 30897 30892 30911 30903 30917 30897 30878 30894 30873 30861 30842 30835 30842 30856 30844 30852 30854 30896 30876 30733 30663 30578 30511 30462 30399 30343 30426 30505 30478 30442 30456 30458 30507 30523 30466 30401 30361 30339 30337 30321 30329 30325 30299 30291 30253 30202 30168 
29903 29877 29903 29869 29901 29859 29871 29888 29867 29854 29861 29842 29838 29838 29844 29857 29844 29850 29854 29850 29850 29850 29842 29842 29842 29829 29850 29836 29842 29834 29836 29829 29842 29842 29838 29831 29825 29829 29850 29827 29831 29836 29852 29854 29844 29844 29827 29842 29850 29844 29854 29859 29857 29857 29865 29867 29875 29882 29888 29901 29905 29905 29921 29921 29936 29948 29942 29913 29953 30004 30115 30200 30229 30271 30291 30297 30375 30458 30527 30501 
30440 30373 30381 30452 30663 30941 31196 31397 31513 31606 31546 31396 31135 30897 30710 30605 30515 30450 30452 30476 30521 30537 30511 30513 30539 30543 30570 30586 30634 30702 30772 30833 30857 30875 30876 30903 30897 30909 30913 30894 30880 30873 30871 30846 30846 30844 30836 30846 30835 30850 30884 30772 30673 30640 30588 30535 30478 30417 30363 30458 30554 30521 30484 30489 30517 30574 30570 30507 30428 30373 30345 30331 30333 30357 30371 30355 30323 30281 30251 30222 
29915 29901 29886 29894 29880 29873 29873 29890 29880 29844 29842 29850 29840 29836 29852 29848 29836 29836 29848 29857 29848 29848 29854 29844 29842 29844 29834 29846 29819 29842 29829 29829 29834 29850 29831 29834 29827 29825 29834 29838 29821 29836 29844 29848 29834 29831 29848 29848 29857 29840 29840 29857 29852 29859 29867 29877 29877 29894 29894 29888 29901 29909 29921 29926 29915 29938 29932 29938 30017 30143 30186 30214 30237 30253 30281 30303 30363 30442 30548 30517 
30462 30393 30373 30442 30623 30907 31202 31434 31587 31671 31671 31499 31233 30926 30654 30537 30511 30456 30458 30460 30531 30562 30543 30501 30505 30505 30533 30535 30564 30572 30607 30671 30735 30785 30829 30867 30880 30892 30857 30857 30869 30861 30875 30869 30838 30815 30796 30796 30791 30775 30733 30619 30609 30611 30568 30537 30484 30422 30349 30419 30537 30525 30487 30519 30558 30586 30601 30529 30456 30369 30347 30321 30333 30389 30391 30375 30341 30301 30265 30287 
29905 29882 29896 29869 29875 29859 29871 29857 29859 29848 29848 29850 29831 29850 29842 29844 29842 29840 29842 29854 29850 29842 29846 29836 29808 29842 29854 29829 29823 29844 29831 29817 29836 29831 29836 29836 29817 29827 29823 29827 29834 29838 29838 29848 29834 29840 29834 29840 29846 29827 29844 29861 29857 29854 29869 29873 29865 29880 29896 29877 29892 29907 29919 29921 29915 29924 29948 29969 30109 30174 30218 30253 30237 30239 30267 30297 30345 30432 30529 30548 
30505 30444 30387 30411 30570 30850 31155 31425 31635 31769 31777 31619 31334 30962 30652 30468 30422 30417 30434 30419 30495 30560 30566 30505 30487 30458 30460 30464 30482 30507 30529 30564 30572 30601 30638 30657 30692 30721 30729 30754 30760 30781 30789 30756 30712 30654 30657 30615 30603 30588 30566 30554 30570 30590 30550 30552 30485 30405 30343 30393 30509 30491 30482 30509 30566 30599 30603 30533 30468 30387 30335 30311 30347 30377 30411 30387 30345 30311 30283 30329 


